<svg id="Layer_1" data-name="Layer 1" xmlns="http://www.w3.org/2000/svg" viewBox="0 0 239.8 381.6"><defs><style>.cls-1,.cls-2{fill:none;stroke:#000;stroke-miterlimit:10;}.cls-1{stroke-width:3px;}.cls-2{stroke-width:2px;}</style></defs><title>icon</title><path class="cls-1" d="M200.8,87.4l-2,257.3v.6c.2,1.9.9,13.3-10,19.7,0,0-18,15-69.9,15h-.3c-1.9.1-25.4,1.4-60.8-12L36,359.1l-.4-.2c-1.9-1-17.4-9-23.4-16.3a2.6,2.6,0,0,0-.9-.9c-1.9-1.5-9.5-8.4-9.5-26.7V60.5c0-.3-.1-.6-.1-.9C1.3,57.5.3,47.4,12.6,41.1l.4-.2C15.8,39.7,48.6,26,69.6,24h.3c1.7-.3,18.5-2.8,33.7,0h.3c3.1.3,46.9,5.1,81.6,34.8A34.9,34.9,0,0,1,200.8,87.4Z"/><path class="cls-1" d="M190.9,363.6s14.1-10.5,23.4-17.1c7-5,6-15,6-15s1-233,1-258-14-30-14-30-33-23-68-30-74-8-125,27"/><path class="cls-1" d="M214.3,346.5l14-15a31.5,31.5,0,0,0,7-15s3-237,3-256-17-28-17-28c-36-29-84-31-84-31h-28s-30.5,5-53.8,17"/><path class="cls-1" d="M103.3,114.5l-14-2a6,6,0,0,1-6-6h0a6,6,0,0,1,6-6l14,2a6,6,0,0,1,6,6h0A6,6,0,0,1,103.3,114.5Z"/><path class="cls-1" d="M161.3,286.5c0,41.7-14,64-56,65s-71-29-73-79c-1.6-39,21-57,60-57C117.3,215.5,161.3,240,161.3,286.5Z"/><path class="cls-2" d="M65.3,289.5v-22l-6-1-20.7,16a.6.6,0,0,0,.3,1h7.4v18.9a.6.6,0,0,0,.9.4l18.1-13.3c10,26,39,37,39,37s21.9,9.2,51.4-3.9"/><path class="cls-2" d="M73.2,217.2l-6.9,9.3v20L45.9,261c-.2.2-.6,0-.6-.3v.8h-8l8-22"/><path class="cls-2" d="M37.3,261.5v22A51.9,51.9,0,0,0,45.8,303"/><line class="cls-2" x1="59.3" y1="266.5" x2="58.1" y2="252.3"/><line class="cls-2" x1="66.8" y1="226" x2="44.8" y2="240"/><line class="cls-2" x1="45.8" y1="284" x2="65.3" y2="267.8"/><circle class="cls-2" cx="90.3" cy="261.5" r="8.5"/><circle class="cls-2" cx="149.3" cy="269.5" r="8.5"/></svg>