<svg id="Laag_1" data-name="Laag 1" xmlns="http://www.w3.org/2000/svg" viewBox="0 0 139.61 95.61"><defs><style>.cls-1,.cls-10{fill:none;stroke-miterlimit:10;stroke-width:0.5px;}.cls-1{stroke:#000;}.cls-2,.cls-7{font-size:5px;}.cls-12,.cls-2,.cls-5,.cls-6,.cls-7{fill:#1d1d1b;}.cls-2,.cls-5,.cls-6{font-family:MyriadPro-Regular, Myriad Pro;}.cls-3{letter-spacing:0em;}.cls-4{letter-spacing:0.02em;}.cls-5{font-size:12px;}.cls-6{font-size:7px;}.cls-7{font-family:ArnoPro-Bold, Arno Pro;font-weight:700;}.cls-8{letter-spacing:-0.01em;}.cls-9{letter-spacing:0.01em;}.cls-10{stroke:#1d1d1b;}.cls-11{fill:#fff;}</style></defs><title>learnmode</title><rect class="cls-1" x="0.25" y="0.25" width="139.11" height="95.11" rx="12"/><rect class="cls-1" x="17.58" y="14.62" width="104.3" height="59.26" rx="1"/><rect x="92.99" y="26.18" width="22.52" height="11.56" rx="1"/><rect class="cls-1" x="92.99" y="39.29" width="22.52" height="11.56" rx="1"/><text class="cls-2" transform="translate(34.18 30.47)"><tspan class="cls-3">R</tspan><tspan x="2.71" y="0">OOM</tspan></text><text class="cls-2" transform="translate(70.84 30.47)">S<tspan class="cls-4" x="2.46" y="0">E</tspan><tspan x="5" y="0">T</tspan></text><text class="cls-5" transform="translate(33.4 43.44)">28</text><text class="cls-5" transform="translate(64.95 43.44)">21</text><text class="cls-6" transform="translate(55.77 33.81)">°C</text><text class="cls-7" transform="translate(99.07 86.5)">TK<tspan class="cls-8" x="6.58" y="0">B</tspan><tspan x="9.68" y="0">HO</tspan><tspan class="cls-9" x="17.25" y="0">M</tspan><tspan x="21.49" y="0">E</tspan></text><rect class="cls-10" x="60.36" y="65.51" width="19.11" height="6.39"/><rect class="cls-10" x="80.19" y="65.51" width="19.78" height="6.39"/><rect class="cls-10" x="100.64" y="65.51" width="19.5" height="6.39"/><text class="cls-2" transform="translate(63 70.23)">MENU</text><text class="cls-2" transform="translate(83.6 70.23)">MODE</text><text class="cls-2" transform="translate(106.48 70.03)">OFF</text><polygon class="cls-11" points="103.98 30.1 100.77 33.55 107.2 33.55 103.98 30.1"/><polygon class="cls-12" points="104.25 46.59 101.03 43.14 107.47 43.14 104.25 46.59"/></svg>