<?xml version="1.0" encoding="utf-8"?>
<!-- Generator: Adobe Illustrator 20.0.0, SVG Export Plug-In . SVG Version: 6.00 Build 0)  -->
<svg version="1.1" id="Layer_1" xmlns="http://www.w3.org/2000/svg" xmlns:xlink="http://www.w3.org/1999/xlink" x="0px" y="0px"
	 viewBox="0 0 1099.7 826.9" style="enable-background:new 0 0 1099.7 826.9;" xml:space="preserve">
<g>
	<path d="M210.8,531.3v107.2h109.8V531.3v-37.1H210.8V531.3z M316.4,634.2H215.1v-98.7h101.3V634.2z M316.4,498.4v32.9H215.1v-32.9
		H316.4z"/>
	<path d="M336.7,531.3v107.2h109.8V531.3v-37.1H336.7V531.3z M442.3,634.2H341v-98.7h101.3V634.2z M442.3,498.4v32.9H341v-32.9
		H442.3z"/>
	<path d="M463.4,531.3v107.2h109.8V531.3v-37.1H463.4V531.3z M569,634.2H467.7v-98.7H569V634.2z M569,498.4v32.9H467.7v-32.9H569z"
		/>
	<path d="M595.8,531.3v107.2h109.8V531.3v-37.1H595.8V531.3z M701.4,634.2H600.1v-98.7h101.3V634.2z M701.4,498.4v32.9H600.1v-32.9
		H701.4z"/>
	<path d="M721.8,531.3v107.2h109.8V531.3v-37.1H721.8V531.3z M827.3,634.2H726v-98.7h101.3V634.2z M827.3,498.4v32.9H726v-32.9
		H827.3z"/>
	<path d="M848.4,531.3v107.2h109.8V531.3v-37.1H848.4V531.3z M954,634.2H852.7v-98.7H954V634.2z M954,498.4v32.9H852.7v-32.9H954z"
		/>
	<path d="M241.2,620.5h49.1c6.6,0,12-5.4,12-12v-47.2c0-6.6-5.4-12-12-12h-49.1c-6.6,0-12,5.4-12,12v47.2
		C229.1,615.1,234.6,620.5,241.2,620.5z"/>
	<path d="M367.8,620.5h49.1c6.6,0,12-5.4,12-12v-47.2c0-6.6-5.4-12-12-12h-49.1c-6.6,0-12,5.4-12,12v47.2
		C355.7,615.1,361.2,620.5,367.8,620.5z"/>
	<path d="M493.8,620.5h49.1c6.6,0,12-5.4,12-12v-47.2c0-6.6-5.4-12-12-12h-49.1c-6.6,0-12,5.4-12,12v47.2
		C481.8,615.1,487.2,620.5,493.8,620.5z"/>
	<path d="M880.7,620.5h49.1c6.6,0,12-5.4,12-12v-47.2c0-6.6-5.4-12-12-12h-49.1c-6.6,0-12,5.4-12,12v47.2
		C868.7,615.1,874.1,620.5,880.7,620.5z"/>
	<path d="M752.1,620.5h49.1c6.6,0,12-5.4,12-12v-47.2c0-6.6-5.4-12-12-12h-49.1c-6.6,0-12,5.4-12,12v47.2
		C740.1,615.1,745.5,620.5,752.1,620.5z"/>
	<path d="M627.1,620.5h49.1c6.6,0,12-5.4,12-12v-47.2c0-6.6-5.4-12-12-12h-49.1c-6.6,0-12,5.4-12,12v47.2
		C615.1,615.1,620.5,620.5,627.1,620.5z"/>
	<path d="M977.6,648l-4.8-167.6h-779L187.9,648H187l0.8,2.4l-0.1,1.8h0.7l6.3,18.4h1.2c-0.4,10.4-0.9,22.3-1.3,34.3
		c-0.3,9.6-0.7,19.3-1.1,28.9c-0.5,14.5-1.1,29.4-1.6,44.2l-0.1,2.2h781.6l-0.1-2.8c-0.7-23.9-1.4-48.5-1.9-72.6
		c-0.2-11.4-0.5-22.8-0.8-34.2h0.8l5.5-18.4h0.6l-0.1-1.8l0.7-2.4H977.6z M196.4,775.9c0.5-14,1-28.2,1.5-41.9
		c0.4-9.7,0.7-19.3,1.1-28.9c0.4-11.9,0.9-23.8,1.3-34.1h766.3c0.3,11.3,0.6,22.6,0.8,34c0.5,23.5,1.2,47.6,1.9,71H196.4z
		 M197.9,484.6h770.8l4.7,163.4H192.2L197.9,484.6z M968.4,666.4H197.8l-4.8-14.1h779.7L968.4,666.4z"/>
	<path d="M1094.9,452.1c-0.5-3.9-1-7.9-1.4-12l-15.8-157.2c-2.8-27.4-8-59.2-33.9-90.1c-26.3-31.4-58.5-59.8-95.7-84.5
		c-35.5-23.6-75.8-43.9-119.5-60.2C744.3,16.6,648,0,549.9,0c-98.1,0-194.5,16.6-278.7,48.1c-43.8,16.4-84,36.6-119.5,60.2
		C114.5,133,82.3,161.4,56,192.8c-25.9,30.9-31.1,62.7-33.9,90.1L6.3,440.1c-0.5,4.2-1,8.2-1.4,12.1c-3.7,31.1-6.7,55.6-3.5,94.7
		L9.9,728c0.1,2.7,0.2,5,0.3,7c0.6,15.1,0.9,16,10.9,29.3c0.9,1.2,1.9,2.5,3,4l16.8,22.6c1.6,2.1,3.1,4.3,4.6,6.6
		c7.8,11.4,16.7,24.3,32.9,25.3c82.9,5.2,211.8,4.4,325.4,3.6c51.3-0.3,99.8-0.7,140.5-0.4h0c3.6,0,7.3,0,10.9,0
		c40.7-0.2,89.1,0.1,140.4,0.4c41.5,0.3,85,0.6,127.6,0.6c74.1,0,145.3-0.9,197.9-4.2c16.2-1,25.1-13.9,32.9-25.3
		c1.6-2.3,3.1-4.5,4.6-6.6l16.8-22.6c1.1-1.5,2.1-2.8,3-4c10-13.4,10.3-14.2,10.9-29.3c0.1-2,0.2-4.4,0.3-7l8.6-181.1
		C1101.6,507.7,1098.6,483.2,1094.9,452.1z M30.5,283.8c2.8-27.3,7.6-56.5,32-85.5c25.8-30.8,57.4-58.6,93.9-82.9
		c35-23.2,74.6-43.2,117.8-59.3C357.4,24.9,452.7,8.5,549.9,8.5c97.1,0,192.4,16.4,275.7,47.5c43.2,16.1,82.8,36.1,117.8,59.3
		c36.5,24.2,68.1,52.1,93.9,82.9c24.4,29.1,29.2,58.2,32,85.5L1085,441c0.3,2.6,0.6,5.1,0.9,7.5c-4-8.4-9-15.7-15.1-22.1
		c-22.9-24-60.8-35.4-119.2-35.8H148.1c-58.4,0.5-96.3,11.8-119.2,35.8c-6.1,6.4-11.1,13.7-15.1,22.1c0.3-2.5,0.6-5,0.9-7.6
		L30.5,283.8z M1020.7,814.3c-22.7,1.4-48.8,2.4-77.1,3c-9.1-9.6-20.1-15.2-30.7-15.4c-0.3,0-0.5,0-0.8,0
		c-11.4,0-23.1,5.9-32.8,16.3c-20.8,0.2-42.2,0.2-63.8,0.2c-9.3-10.3-20.7-16.3-31.8-16.5c-0.3,0-0.5,0-0.8,0
		c-11.4,0-23.1,5.9-32.7,16.3c-18.4-0.1-36.7-0.2-54.5-0.3c-4.3,0-8.6-0.1-12.8-0.1c-9.2-9.9-20.4-15.6-31.2-15.9
		c-11.4-0.3-23.1,5.3-32.8,15.5c-11,0-21.8-0.1-32.2-0.1c-10.9,0-21.4,0-31.5,0.1c-0.7,0-1.3,0-2,0c-9.7-10.2-21.4-15.8-32.8-15.6
		c-10.7,0.2-21.7,5.8-30.8,15.5c-21.6,0.1-44.5,0.2-68.2,0.3c-9.8-10.4-21.6-16.1-33.1-15.9c-11,0.3-22.2,6.1-31.5,16.3
		c-21.2,0.1-42.6,0.2-63.8,0.2c-9.9-10.8-22-16.8-33.7-16.5c-11,0.3-22.3,6.2-31.6,16.4c-55.9-0.4-108-1.4-148.8-4
		c-12.1-0.8-19.1-10.9-26.5-21.6c-1.6-2.3-3.2-4.6-4.8-6.8l-3.4-4.6c-0.3-2-0.4-4.5-0.4-8l-6.9-264.8c0.4-24.9,7.3-43.8,20.3-56.1
		c14.1-13.4,36.1-19.7,65.4-18.7l854.2,0c29.2-1,51.2,5.2,65.3,18.7c13,12.4,19.9,31.3,20.3,56l-6.9,265c0,3.5-0.1,5.9-0.4,7.9
		l-3.4,4.6c-1.6,2.2-3.3,4.6-4.8,6.8C1039.8,803.4,1032.8,813.5,1020.7,814.3z M1089.9,546.2l-8.6,181.3c-0.1,2.7-0.2,5.1-0.3,7.1
		c-0.2,6.7-0.4,10-1.4,12.7c-1,2.8-3.3,5.8-7.8,11.8c-0.9,1.2-1.9,2.5-3,4L1060,775c0-0.5,0-1.1,0-1.7l6.9-265
		c-0.5-26.1-7.7-46-21.6-59.2c-15-14.2-38-20.9-68.3-19.8l-854.1,0c-30.4-1.1-53.4,5.6-68.4,19.8c-13.9,13.2-21.2,33.1-21.6,59.2
		l6.9,264.8c0,0.6,0,1.2,0,1.7l-8.8-11.8c-1.1-1.5-2.1-2.8-3-4c-4.5-6-6.8-9-7.8-11.8c-1-2.7-1.1-6.1-1.4-12.7
		c-0.1-2.1-0.2-4.4-0.3-7.1L9.9,546.4l0-0.1c-2.7-32.5-1-54.9,1.8-79.7c4.2-15.1,10.9-27.3,20.3-37.1
		c21.8-22.8,59.7-34.1,116.1-34.5h803.4c56.4,0.4,94.4,11.7,116.2,34.5c9.4,9.8,16.1,22,20.3,37.1
		C1090.9,491.3,1092.6,513.7,1089.9,546.2z"/>
	<path d="M472.5,92.3c26.9-6.6,53.7-13.1,80.2-19.6c25.1,7.7,50.6,15.6,76.3,23.4c25.9,7.9,52.2,16,78.7,24.1
		c2.6-3.6,5.3-7.1,7.9-10.6c-18.3-5.5-36.4-11-54.4-16.5c-0.4-10.3-0.9-20.4-1.3-30.5c-12.4,0-24.8,0-37.1,0
		c0.1,6.3,0.2,12.5,0.4,18.9c-23.2-7.1-46.2-14.1-68.9-21c-0.4,0-0.8,0-1.2,0c-27.5,6.7-55.3,13.5-83.2,20.2
		c-28.2,6.8-56.7,13.7-85.3,20.7c1.9,3.6,3.8,7.2,5.8,10.9C417.9,105.6,445.3,98.9,472.5,92.3z"/>
	<path d="M587.1,152.6c58.4,8.2,59.3,53,59.3,53c12.4,0,24.9,0,37.3,0c-7.1-49.2-42.5-57.4-42.5-57.4c19.4-7.8,16.2-21.5,16.2-21.5
		c-3-21-45-21.2-45-21.2c-31.9,0-63.8,0-95.8,0c-31.9,0-63.8,0-95.8,0c-0.5,5-1.1,10-1.6,15.1c20.5,0,41,0.1,61.5,0.1
		c-0.6,8.1-1.1,16.4-1.7,24.7c-14.6,0-29.3,0-43.9,0c-0.5,5.2-1,10.4-1.5,15.7c14.8,0,29.6,0,44.4,0c-1,14.6-2.1,29.4-3.1,44.5
		c26.1,0,52.2,0,78.4,0c48.7-0.6,47.4-30,47.4-30c0.7-20.3-25.9-27.4-25.9-27.4c25.9-10.8,15.1-27.5,15.1-27.5c7.6,0,15.2,0,22.8,0
		c10.9,4.6,10.2,13.8,10.2,13.8C619.2,152.1,587.1,152.6,587.1,152.6z M553.6,188.9c-12,0-23.9,0-35.9,0c1-23.4,2.1-46.1,3.1-68.2
		c9.1,0,18.1,0,27.2,0c10,6,9.1,12.8,9.1,12.8c-1.5,18-37.1,19.1-37.1,19.1C590.2,167.3,553.6,188.9,553.6,188.9z"/>
	<path d="M381,275.2c11,0,21.9,0,32.9,0c0.3-3,0.6-6.1,0.9-9.1c-10.9,0-21.8,0-32.7,0c0.5-4,1-8.1,1.5-12.1c12.5,0,25,0,37.5,0
		c0.3-3.2,0.6-6.4,0.9-9.6c-18.1,0-36.2,0-54.3,0c-2.3,17.3-4.5,35-6.9,53c5.8,0,11.7,0,17.5,0C379.2,290,380.1,282.6,381,275.2z"/>
	<path d="M440.7,244.4c-5.7,0-11.3,0-17,0c-1.7,17.3-3.4,35-5.2,53c5.8,0,11.7,0,17.5,0C437.6,279.5,439.2,261.8,440.7,244.4z"/>
	<path d="M501.3,293.7c2.7-1.3,4.8-2.9,6.5-4.9c1.7-2,2.5-4.3,2.7-7.1c0.2-3.4-0.9-6.2-3.2-8.5c-2.3-2.3-5.8-4-10.6-5
		c3.6-1.1,6.3-2.6,8.2-4.3c1.9-1.8,2.9-4,3-6.6c0.1-2.5-0.4-4.5-1.5-6.1c-1.1-1.7-2.7-3-4.9-4c-2.1-1-4.7-1.7-7.7-2.1
		c-3-0.4-6.3-0.6-10-0.6c-12.1,0-24.2,0-36.3,0c-1.5,17.3-2.9,35-4.4,53c12.8,0,25.7,0,38.6,0c3.6,0,7-0.3,10.5-0.9
		C495.5,295.9,498.6,295,501.3,293.7z M463.8,253.3c5.3,0,10.6,0,16,0c1.5,0,3,0.1,4.4,0.3c1.4,0.2,2.6,0.5,3.7,0.9
		c1.1,0.4,1.9,1,2.5,1.8c0.6,0.8,0.9,1.8,0.8,3c-0.1,2.2-1.2,3.8-3.2,4.8c-2,1-4.6,1.5-7.6,1.5c-5.8,0-11.6,0-17.4,0
		C463.2,261.4,463.5,257.3,463.8,253.3z M488.9,286.7c-1.2,0.5-2.6,0.9-4.2,1.1c-1.6,0.2-3.2,0.4-4.9,0.4c-6.2,0-12.4,0-18.6,0
		c0.4-4.9,0.7-9.8,1.1-14.7c6.3,0,12.5,0,18.8,0c3.7,0,6.7,0.6,8.9,1.8c2.2,1.2,3.2,3.1,3.1,5.9c-0.1,1.4-0.5,2.6-1.2,3.5
		C491.1,285.5,490.1,286.1,488.9,286.7z"/>
	<path d="M615.8,276.4c4.3,0,7.5,0.6,9.4,1.9c1.9,1.3,3.2,3.4,3.9,6.2c0.5,2.1,0.9,4.4,1.1,6.8c0.3,2.4,0.9,4.4,1.9,6.2
		c5.8,0,11.7,0,17.5,0c-0.8-0.8-1.5-1.7-1.9-2.8c-0.4-1.1-0.8-2.3-1-3.5c-0.2-1.2-0.4-2.4-0.5-3.6c-0.1-1.1-0.2-2.1-0.3-3
		c-0.2-1.3-0.5-2.7-1-4.1c-0.4-1.4-1.1-2.6-2-3.7c-0.9-1.1-2.1-2.1-3.5-2.9c-1.4-0.8-3.2-1.4-5.3-1.8c0,0,0-0.1,0-0.2
		c4.4-1.2,7.5-2.9,9.4-5.2c1.9-2.3,2.8-4.9,2.7-8c-0.1-2-0.7-3.9-1.8-5.6c-1.1-1.7-2.7-3.2-4.7-4.5c-2-1.3-4.4-2.3-7.2-3
		c-2.8-0.8-5.9-1.1-9.4-1.1c-13.9,0-27.7,0-41.6,0c-0.1,16.5-0.2,33.3-0.3,50.4c-9.2-17.1-18.3-33.9-27.1-50.4c-5.8,0-11.6,0-17.4,0
		c-10.4,17.3-21,35-31.8,53c5.9,0,11.7,0,17.6,0c2.2-4,4.5-8.1,6.7-12.1c9.8,0,19.7,0,29.5,0c1.9,4,3.8,8,5.8,12.1
		c6,0,12.1,0,18.2,0c5.3,0,10.7,0,16,0c0-7.1,0-14.1-0.1-21.1C604.3,276.4,610,276.4,615.8,276.4z M533.9,276.6
		c3.6-6.5,7.2-13,10.8-19.4c0.1,0,0.1,0,0.2,0c3.1,6.4,6.2,12.9,9.4,19.4C547.5,276.6,540.7,276.6,533.9,276.6z M598.5,253.3
		c6.2,0,12.5,0,18.7,0c3.9,0,6.9,0.6,8.8,1.7c2,1.1,3,3,3,5.5c0.1,2.7-0.9,4.6-2.8,5.8c-1.9,1.2-4.9,1.7-8.8,1.7
		c-6.3,0-12.6,0-18.8,0C598.5,263.1,598.5,258.1,598.5,253.3z"/>
	<path d="M714.4,251.1c-3.4-2.5-7.5-4.4-12.3-5.8c-4.8-1.4-10.2-2.1-16.1-2.1c-5.9,0-11.2,0.7-15.9,2.1c-4.7,1.4-8.6,3.3-11.7,5.8
		c-3.2,2.5-5.6,5.4-7.2,8.7c-1.6,3.4-2.4,7-2.3,11c0.1,3.9,1.1,7.5,3,10.9c1.9,3.4,4.5,6.3,7.9,8.8c3.4,2.6,7.6,4.5,12.5,6
		c4.9,1.4,10.5,2.2,16.6,2.2c6.2,0,11.6-0.8,16.4-2.2c4.7-1.4,8.7-3.4,11.8-6c3.1-2.5,5.5-5.5,7-8.9c1.5-3.4,2.1-7,1.8-10.9
		c-0.3-3.9-1.4-7.6-3.4-11C720.5,256.4,717.8,253.5,714.4,251.1z M708,277.3c-0.6,2.1-1.7,4-3.3,5.7c-1.6,1.7-3.8,3.1-6.4,4.1
		c-2.6,1-6,1.5-9.9,1.5c-3.9,0-7.3-0.5-10-1.5c-2.8-1-5.1-2.4-6.8-4.1c-1.8-1.7-3.1-3.6-4-5.7c-0.9-2.1-1.3-4.3-1.4-6.5
		c-0.1-2.3,0.2-4.6,0.8-6.8c0.7-2.1,1.8-4.1,3.4-5.8c1.6-1.7,3.7-3,6.3-4c2.6-1,5.9-1.5,9.7-1.5c3.8,0,7.2,0.5,9.9,1.5
		c2.7,1,5,2.3,6.8,4c1.8,1.7,3.1,3.6,4,5.8c0.9,2.1,1.5,4.4,1.6,6.7C708.8,273,708.6,275.1,708,277.3z"/>
	<path d="M725,232.2c-0.2-3-0.5-6-0.7-9c-59.3,0-118.7,0-177.9,0s-118.6,0-177.8,0c-0.4,3-0.8,6-1.2,9c59.5,0,119.2,0,178.7,0
		C605.7,232.2,665.4,232.2,725,232.2z"/>
	<path d="M442.1,330c-5.6-6.6-11.2-13.2-16.7-19.7c-2.1,0-4.2,0-6.2,0c6.6,7.6,13.2,15.3,19.9,23c-0.5,5.4-0.9,10.9-1.4,16.4
		c1.8,0,3.6,0,5.4,0c0.4-5.5,0.9-11,1.3-16.4c8-7.7,16-15.4,23.8-23c-2.1,0-4.2,0-6.3,0C455.4,316.8,448.8,323.4,442.1,330z"/>
	<path d="M358.5,347.2c1.9,1.1,4.2,1.9,7,2.5c2.8,0.5,5.9,0.8,9.2,0.8c3.4,0,6.3-0.2,8.7-0.6c2.4-0.4,4.5-1,6.2-1.7
		c1.7-0.7,3-1.5,4.1-2.3c1-0.9,1.9-1.7,2.4-2.5c0.6-0.9,1-1.6,1.2-2.4c0.2-0.7,0.3-1.3,0.4-1.8c0.2-1.7-0.1-3-0.7-4.2
		c-0.6-1.1-1.6-2.1-2.9-2.9c-1.2-0.8-2.7-1.5-4.4-2c-1.7-0.5-3.5-1-5.5-1.3c-4.5-0.8-9-1.5-13.4-2.3c-1.1-0.2-2.2-0.4-3.2-0.7
		c-1-0.3-1.8-0.7-2.6-1.1c-0.7-0.5-1.3-1.1-1.6-1.7c-0.4-0.7-0.5-1.5-0.3-2.4c0.2-1.5,0.7-2.7,1.6-3.7c0.9-1,2-1.8,3.4-2.3
		c1.3-0.6,2.9-1,4.6-1.3c1.7-0.3,3.5-0.4,5.3-0.4c2,0,3.8,0.2,5.6,0.6c1.8,0.4,3.3,0.9,4.6,1.7c1.3,0.7,2.3,1.7,3,2.8
		c0.7,1.1,1.1,2.4,1,3.9c1.8,0,3.5,0,5.3,0c0.2-2-0.2-3.7-1.1-5.2c-1-1.5-2.3-2.7-4.1-3.7c-1.8-1-3.8-1.8-6.3-2.3
		c-2.4-0.5-5-0.8-7.8-0.8c-3.9,0-7.2,0.4-9.7,1.2c-2.6,0.8-4.7,1.7-6.2,2.8c-1.6,1.1-2.7,2.3-3.4,3.6c-0.7,1.3-1.1,2.4-1.2,3.3
		c-0.2,1.5,0,2.8,0.5,3.9c0.6,1.1,1.4,1.9,2.4,2.7c1.1,0.7,2.3,1.3,3.8,1.8c1.5,0.4,3,0.8,4.7,1.1c4.1,0.7,8.1,1.4,12.3,2.1
		c1.3,0.2,2.6,0.5,4,0.8c1.3,0.3,2.5,0.8,3.6,1.4c1.1,0.6,1.9,1.2,2.5,2.1c0.6,0.8,0.9,1.8,0.7,2.9c-0.2,1.4-0.8,2.7-1.9,3.7
		c-1.1,1-2.5,1.9-4.1,2.5c-1.6,0.6-3.3,1.1-5,1.4c-1.8,0.3-3.4,0.4-4.9,0.4c-2.6,0-5-0.2-7.3-0.6c-2.2-0.3-4.2-0.9-5.7-1.7
		c-1.5-0.8-2.7-1.9-3.5-3.3c-0.8-1.4-1-3.1-0.7-5.1c-1.8,0-3.6,0-5.4,0c-0.4,2.4-0.3,4.6,0.5,6.3C355.3,344.6,356.6,346,358.5,347.2
		z"/>
	<path d="M620.3,346.4c-0.1-5.2-0.2-10.5-0.2-15.7c10.5,0,20.9,0,31.4,0c0-1-0.1-2.1-0.1-3.2c-10.5,0-20.9,0-31.4,0
		c-0.1-4.7-0.1-9.4-0.2-14.1c11,0,22.1,0,33.2,0c0-1-0.1-2.1-0.1-3.2c-12.8,0-25.6,0-38.5,0c0.2,13,0.3,26.1,0.5,39.4
		c13.2,0,26.5,0,39.7,0c0-1.1-0.1-2.2-0.1-3.3C643.1,346.4,631.7,346.4,620.3,346.4z"/>
	<path d="M706,344.7c-7.2-11.6-14.4-23.1-21.4-34.5c-2.6,0-5.2,0-7.8,0c0.6,13,1.2,26.1,1.8,39.4c1.8,0,3.6,0,5.4,0
		c-0.6-11.5-1.1-22.9-1.7-34.2c0,0,0.1,0,0.1,0c7,11.3,14,22.7,21.2,34.2c1.7,0,3.4,0,5.1,0c5.7-11.5,11.3-22.9,16.9-34.2
		c0,0,0.1,0,0.1,0c0.8,11.3,1.7,22.7,2.5,34.2c1.8,0,3.6,0,5.4,0c-1-13.3-2-26.5-3-39.5c-2.6,0-5.2,0-7.8,0
		C717.5,321.6,711.8,333.1,706,344.7z"/>
	<path d="M548.9,310.3c0,1-0.1,2.1-0.1,3.1c6.4,0,12.9,0,19.4,0c-0.2,11.9-0.3,24-0.5,36.3c1.8,0,3.6,0,5.4,0
		c0.1-12.3,0.3-24.3,0.4-36.3c6.5,0,13,0,19.5,0c0-1,0-2.1,0-3.1C578.3,310.3,563.6,310.3,548.9,310.3z"/>
	<path d="M525.1,332c-1.3-0.8-2.9-1.5-4.6-2c-1.8-0.5-3.6-1-5.6-1.4c-4.5-0.8-9.1-1.5-13.6-2.3c-1.2-0.2-2.2-0.5-3.2-0.8
		c-1-0.3-1.9-0.7-2.7-1.1c-0.8-0.5-1.3-1.1-1.8-1.7c-0.4-0.7-0.6-1.4-0.5-2.4c0.1-1.4,0.6-2.7,1.4-3.7c0.8-1,1.9-1.7,3.2-2.3
		c1.3-0.6,2.8-1.1,4.5-1.3c1.7-0.3,3.5-0.4,5.3-0.4c2,0,3.9,0.2,5.6,0.6c1.8,0.4,3.3,1,4.7,1.7c1.4,0.7,2.4,1.7,3.3,2.8
		c0.8,1.1,1.3,2.4,1.3,3.9c1.8,0,3.5,0,5.3,0c0.1-2-0.4-3.8-1.5-5.2c-1.1-1.5-2.5-2.8-4.4-3.8c-1.8-1-4-1.8-6.5-2.3
		c-2.4-0.5-5.1-0.8-7.8-0.8c-3.9,0-7.1,0.4-9.7,1.2c-2.6,0.8-4.6,1.7-6.1,2.8c-1.5,1.1-2.5,2.3-3.1,3.6c-0.6,1.3-0.9,2.4-1,3.3
		c-0.1,1.5,0.2,2.8,0.9,3.9c0.6,1.1,1.5,1.9,2.6,2.7c1.1,0.7,2.4,1.3,3.9,1.8c1.5,0.4,3.1,0.8,4.7,1.1c4.1,0.8,8.3,1.4,12.4,2.2
		c1.3,0.2,2.6,0.5,4,0.8c1.3,0.3,2.6,0.8,3.7,1.3c1.1,0.6,2,1.3,2.7,2.1c0.7,0.8,1,1.7,1,2.9c-0.1,1.4-0.6,2.7-1.7,3.7
		c-1,1-2.3,1.9-3.9,2.5c-1.6,0.7-3.2,1.1-4.9,1.4c-1.8,0.3-3.4,0.4-4.9,0.4c-2.6,0-5-0.2-7.3-0.6c-2.2-0.4-4.2-0.9-5.8-1.7
		c-1.6-0.8-2.9-1.9-3.7-3.3c-0.9-1.4-1.2-3.1-1.1-5.1c-1.8,0-3.6,0-5.4,0c-0.3,2.4,0.1,4.5,1,6.3c1,1.8,2.4,3.2,4.4,4.3
		c2,1.1,4.4,1.9,7.2,2.5c2.8,0.5,5.9,0.8,9.3,0.8c3.4,0,6.2-0.2,8.6-0.6c2.4-0.4,4.5-1,6.1-1.7c1.6-0.7,2.9-1.4,3.9-2.3
		c0.9-0.9,1.7-1.7,2.2-2.5c0.5-0.8,0.9-1.6,1.1-2.4c0.2-0.7,0.2-1.3,0.3-1.8c0.1-1.7-0.3-3-1-4.2C527.4,333.8,526.4,332.8,525.1,332
		z"/>
</g>
</svg>
