<?xml version="1.0" encoding="utf-8"?>
<!-- Generator: Adobe Illustrator 17.0.0, SVG Export Plug-In . SVG Version: 6.00 Build 0)  -->
<!DOCTYPE svg PUBLIC "-//W3C//DTD SVG 1.1//EN" "http://www.w3.org/Graphics/SVG/1.1/DTD/svg11.dtd">
<svg version="1.1" id="Layer_1" xmlns="http://www.w3.org/2000/svg" xmlns:xlink="http://www.w3.org/1999/xlink" x="0px" y="0px"
	 width="251.864px" height="173.946px" viewBox="0 0 251.864 173.946" enable-background="new 0 0 251.864 173.946"
	 xml:space="preserve">
<polygon points="211.224,41.767 211.224,2.694 182.216,2.694 182.216,27.095 128.619,0 127.691,0 0,52.214 5.498,65.664 
	127.597,15.758 245.311,75.281 251.864,62.315 "/>
<path d="M201.149,108.759c14.651-9.19,12.606-25.62,12.606-25.62c-1.63-25.622-33.584-25.87-33.584-25.87H34.587v18.52l46.291,0.046
	v29.586h-32.59v18.327h32.59v50.198h56.069c34.826-0.633,34.063-33.538,34.063-33.538c0.555-23.413-19.121-31.65-19.121-31.65
	c19.182-12.778,11.101-32.969,11.101-32.969h17.182c8.131,5.628,7.47,16.633,7.47,16.633c-2.852,20.884-26.56,21.482-26.56,21.482
	c42.93,9.571,42.523,60.042,42.523,60.042h26.677C227.032,118.284,201.149,108.759,201.149,108.759 M136.946,155.42h-25.919V75.865
	h20.434c7.613,7.274,7.064,15.396,7.064,15.396c-0.813,21.364-27.013,22.655-27.013,22.655
	C163.402,130.877,136.946,155.42,136.946,155.42z"/>
</svg>
