<svg version="1.0" xmlns="http://www.w3.org/2000/svg"
 width="670.000000pt" height="670.000000pt" viewBox="0 0 670.000000 670.000000"
 preserveAspectRatio="xMidYMid meet">

<g transform="translate(0.000000,670.000000) scale(0.100000,-0.100000)"
fill="#000000" stroke="none">
<path d="M4838 6535 c-113 -27 -198 -55 -198 -67 0 -4 -6 -8 -14 -8 -7 0 -36
-24 -64 -54 -51 -53 -89 -122 -112 -201 -13 -47 -26 -352 -35 -887 -6 -319
-10 -388 -21 -388 -8 0 -14 -5 -14 -11 0 -6 7 -9 15 -5 19 7 19 1 0 -139 -8
-60 -15 -144 -15 -185 l0 -75 -38 -20 -37 -20 -3 -153 -3 -152 37 0 37 0 -6
-327 c-4 -181 -10 -462 -13 -626 -4 -189 -3 -302 4 -310 6 -8 6 -156 0 -432
-7 -304 -7 -444 2 -505 10 -81 34 -174 50 -195 4 -5 11 -21 15 -35 22 -70 168
-220 253 -260 31 -15 52 -31 52 -41 0 -13 32 -22 158 -47 150 -30 163 -31 292
-23 128 9 141 12 245 54 194 80 242 117 299 232 55 113 54 91 95 2235 22 1171
35 2022 30 2075 -14 160 -77 292 -190 399 -72 69 -141 106 -209 114 -24 3 -50
10 -56 16 -6 7 -66 22 -134 36 -97 18 -129 21 -151 13 -23 -9 -29 -9 -29 3 0
22 -128 16 -242 -11z m142 5 c-34 -11 -60 -11 -35 0 11 5 29 8 40 8 16 0 15
-2 -5 -8z m90 -40 c0 -33 -3 -40 -20 -40 -16 0 -20 7 -20 34 0 31 9 43 33 45
4 1 7 -17 7 -39z m-50 1 c0 -28 -3 -30 -81 -51 -44 -12 -83 -19 -87 -16 -3 3
0 6 6 6 7 0 12 3 11 8 -1 4 2 17 6 28 5 17 22 25 73 37 37 8 68 15 70 16 1 1
2 -12 2 -28z m-153 13 c-3 -3 -12 -4 -19 -1 -8 3 -5 6 6 6 11 1 17 -2 13 -5z
m358 -16 c60 -12 104 -23 97 -26 -12 -4 -212 35 -220 43 -9 8 8 6 123 -17z
m-435 -12 c-47 -6 -95 -17 -107 -24 -13 -7 -23 -8 -23 -3 0 9 36 23 85 34 11
3 45 5 75 5 49 0 46 -1 -30 -12z m413 -17 c74 -12 92 -24 50 -33 -45 -9 -147
17 -151 38 -3 13 1 17 15 12 10 -3 48 -10 86 -17z m187 11 c0 -5 -5 -10 -11
-10 -5 0 -7 5 -4 10 3 6 8 10 11 10 2 0 4 -4 4 -10z m-603 -21 c-37 -5 -91
-20 -120 -35 -43 -20 -47 -21 -27 -5 38 31 99 49 160 49 l55 -1 -68 -8z m788
-53 c28 -18 69 -52 91 -75 92 -94 174 -278 174 -392 l0 -46 -82 -30 -83 -29
-12 86 c-20 151 -77 273 -172 373 -53 56 -148 121 -187 129 -11 2 19 13 66 25
97 24 113 20 205 -41z m-772 27 c-13 -2 -33 -2 -45 0 -13 2 -3 4 22 4 25 0 35
-2 23 -4z m306 -17 c58 -12 106 -27 108 -32 2 -6 -51 0 -122 15 -69 13 -125
28 -125 33 0 12 23 9 139 -16z m-169 0 c0 -7 -9 -25 -20 -39 -11 -14 -20 -29
-20 -35 0 -8 -150 -24 -158 -17 -1 1 15 20 36 41 37 36 60 45 155 63 4 0 7 -5
7 -13z m377 -22 c-5 -5 -57 13 -57 20 0 3 14 0 31 -6 16 -6 28 -12 26 -14z
m-575 -39 c-20 -30 -50 -61 -67 -69 -49 -24 -74 -54 -81 -96 -4 -23 -12 -40
-20 -40 -7 0 -14 -12 -16 -27 -2 -21 -10 -29 -35 -37 -18 -5 -33 -15 -33 -22
0 -8 -4 -14 -9 -14 -6 0 -7 17 -4 38 21 155 108 267 236 308 66 20 68 17 29
-41z m265 39 c-3 -3 -12 -4 -19 -1 -8 3 -5 6 6 6 11 1 17 -2 13 -5z m50 -10
c-3 -3 -12 -4 -19 -1 -8 3 -5 6 6 6 11 1 17 -2 13 -5z m218 -12 c-3 -3 -11 0
-18 7 -9 10 -8 11 6 5 10 -3 15 -9 12 -12z m-205 -17 c68 -14 125 -25 127 -25
2 0 -7 -14 -19 -31 -20 -27 -23 -43 -23 -120 0 -74 -2 -88 -15 -85 -16 5 -175
37 -199 41 -63 9 -68 154 -8 233 12 15 -8 16 137 -13z m37 19 c-3 -3 -12 -4
-19 -1 -8 3 -5 6 6 6 11 1 17 -2 13 -5z m50 -10 c-3 -3 -12 -4 -19 -1 -8 3 -5
6 6 6 11 1 17 -2 13 -5z m158 -4 c3 -6 -1 -7 -9 -4 -18 7 -21 14 -7 14 6 0 13
-4 16 -10z m-108 -6 c-3 -3 -12 -4 -19 -1 -8 3 -5 6 6 6 11 1 17 -2 13 -5z
m54 -12 c-7 -2 -18 1 -23 6 -8 8 -4 9 13 5 13 -4 18 -8 10 -11z m59 -28 c0 -2
-9 0 -20 6 -11 6 -20 13 -20 16 0 2 9 0 20 -6 11 -6 20 -13 20 -16z m-440 -19
c0 -14 -1 -25 -2 -25 -2 0 -24 8 -51 18 -55 21 -52 32 10 32 39 0 43 -2 43
-25z m375 15 c3 -5 2 -10 -3 -10 -19 0 -62 -53 -62 -76 0 -13 -5 -24 -12 -24
-9 0 -9 -3 0 -12 7 -7 12 -20 12 -30 0 -28 34 -41 78 -28 50 13 52 13 52 -9 0
-14 -12 -22 -44 -30 -65 -16 -82 -14 -100 14 -30 46 -17 148 26 203 12 14 44
16 53 2z m158 -65 c59 -57 106 -129 141 -218 30 -75 47 -207 27 -207 -6 0 -11
15 -11 34 0 56 -17 130 -51 218 -28 73 -42 93 -109 160 -42 42 -69 73 -61 68
9 -4 38 -29 64 -55z m-603 35 c11 -7 3 -9 -25 -4 -25 3 -56 -1 -83 -10 -24 -8
-40 -11 -37 -6 15 24 118 38 145 20z m533 -25 c26 -20 47 -43 47 -54 0 -17 -4
-17 -72 -5 -122 23 -120 22 -108 44 10 19 56 49 75 49 6 0 31 -15 58 -34z
m-488 5 c3 -6 -1 -7 -9 -4 -18 7 -21 14 -7 14 6 0 13 -4 16 -10z m-22 -17 c29
-15 30 -17 12 -24 -11 -4 -31 -8 -45 -8 -14 -1 -51 -14 -82 -30 -32 -16 -58
-27 -58 -23 0 19 43 68 72 84 42 22 61 22 101 1z m-198 -23 c-10 -11 -21 -17
-24 -14 -3 3 3 12 13 20 28 20 32 17 11 -6z m22 -25 c-19 -38 -47 -60 -47 -37
0 8 59 82 65 82 2 0 -6 -20 -18 -45z m263 -74 c24 -16 26 -31 5 -31 -8 0 -15
5 -15 10 0 6 -6 10 -14 10 -7 0 -30 16 -50 35 -21 19 -31 32 -22 29 8 -3 23 3
33 13 17 18 18 17 30 -17 7 -19 21 -41 33 -49z m354 64 c25 -4 46 -11 46 -14
0 -13 -87 -28 -104 -19 -20 11 -22 52 -2 45 7 -3 34 -9 60 -12z m-480 -23 c2
-4 -11 -6 -30 -4 -19 2 -34 6 -34 8 0 8 59 4 64 -4z m-74 -6 c0 -2 -7 -7 -16
-10 -8 -3 -12 -2 -9 4 6 10 25 14 25 6z m50 -16 c0 -5 -15 -10 -32 -10 -25 0
-29 3 -18 10 20 13 50 13 50 0z m668 3 c-10 -2 -28 -2 -40 0 -13 2 -5 4 17 4
22 1 32 -1 23 -4z m-622 -19 c17 -14 17 -15 1 -10 -10 3 -23 6 -28 6 -5 0 -9
5 -9 10 0 14 13 12 36 -6z m653 -15 c11 -18 11 -23 -1 -30 -7 -5 -18 -9 -23
-9 -6 0 -27 -14 -48 -31 -65 -53 -80 -10 -18 52 44 44 70 49 90 18z m-803 -1
c56 -10 64 -14 64 -33 0 -18 -8 -24 -42 -31 l-43 -9 -3 -105 -3 -106 -35 4
c-34 4 -36 6 -30 34 3 17 6 82 6 144 0 78 4 114 11 114 7 0 40 -5 75 -12z
m171 -58 c1 -15 0 -18 -3 -7 -6 20 -20 22 -27 5 -3 -7 -6 -3 -6 10 -1 33 33
25 36 -8z m-282 10 c-3 -5 -13 -10 -21 -10 -8 0 -12 5 -9 10 3 6 13 10 21 10
8 0 12 -4 9 -10z m722 4 c-3 -3 -12 -4 -19 -1 -8 3 -5 6 6 6 11 1 17 -2 13 -5z
m-147 -49 l155 -31 3 -138 c2 -131 2 -138 -18 -143 -11 -3 -20 -9 -20 -13 0
-10 -75 7 -111 25 -15 8 -47 15 -70 15 -23 0 -70 5 -104 11 -60 10 -61 11 -57
40 2 16 8 29 13 29 5 0 9 45 9 100 0 60 -4 100 -10 100 -5 0 -10 11 -10 25 0
22 3 24 33 18 17 -4 102 -21 187 -38z m107 19 c-3 -3 -12 -4 -19 -1 -8 3 -5 6
6 6 11 1 17 -2 13 -5z m268 -8 c19 -14 19 -15 2 -33 -11 -13 -17 -36 -17 -67
0 -39 5 -53 28 -74 20 -20 26 -35 24 -59 -4 -40 -25 -48 -71 -26 -53 26 -90
87 -91 146 0 59 11 82 53 107 38 24 47 24 72 6z m-952 -275 c-3 -152 -8 -350
-12 -441 l-6 -164 -32 -10 c-25 -7 -33 -15 -33 -32 0 -30 12 -36 44 -24 26 9
26 9 26 -45 0 -45 -3 -55 -20 -60 -11 -3 -20 -11 -20 -17 0 -6 9 -8 20 -5 12
3 20 0 20 -8 0 -7 -11 -16 -25 -19 -18 -5 -25 -13 -25 -31 0 -15 -6 -25 -14
-25 -8 0 -17 -6 -20 -12 -3 -7 -4 75 -1 182 3 107 8 373 11 590 l7 395 43 1
43 1 -6 -276z m310 242 c-7 -2 -21 -2 -30 0 -10 3 -4 5 12 5 17 0 24 -2 18 -5z
m484 -15 c-3 -8 -6 -5 -6 6 -1 11 2 17 5 13 3 -3 4 -12 1 -19z m301 -48 c0
-22 -1 -22 -8 5 -4 17 -8 39 -8 50 0 16 2 15 8 -5 4 -14 8 -36 8 -50z m-875
44 c15 -1 37 -2 48 -3 21 -1 22 -4 15 -78 -3 -42 -8 -78 -11 -81 -2 -3 -31 4
-62 16 -32 11 -71 23 -88 25 -16 2 -4 5 28 6 l58 1 -3 48 -3 47 -52 9 c-29 5
-53 13 -53 19 0 6 18 6 48 1 26 -4 59 -8 75 -10z m834 -6 c-3 -8 -6 -5 -6 6
-1 11 2 17 5 13 3 -3 4 -12 1 -19z m-697 -63 c0 -63 -3 -76 -19 -85 -39 -20
-43 -14 -36 63 8 92 10 97 35 97 18 0 20 -6 20 -75z m407 -122 c-2 -38 -3 -7
-3 67 0 74 1 105 3 68 2 -38 2 -98 0 -135z m53 145 c0 -23 -3 -29 -9 -19 -8
12 -4 51 5 51 2 0 4 -15 4 -32z m169 -11 c0 -21 -1 -21 -9 -2 -12 28 -12 37 0
30 6 -3 10 -16 9 -28z m84 -42 c3 -37 2 -51 -3 -35 -8 25 -13 107 -6 99 2 -2
6 -31 9 -64z m-873 30 c0 -22 -4 -25 -40 -25 -33 0 -40 3 -40 19 0 12 8 21 23
24 50 10 57 8 57 -18z m610 -45 c0 -16 -4 -30 -10 -30 -5 0 -10 14 -10 30 0
17 5 30 10 30 6 0 10 -13 10 -30z m297 -22 c-2 -13 -4 -5 -4 17 -1 22 1 32 4
23 2 -10 2 -28 0 -40z m142 -1957 c-30 -1567 -41 -1986 -51 -1993 -7 -4 -45
-18 -84 -32 l-70 -23 3 51 c1 28 19 923 40 1988 l37 1938 81 29 c44 16 81 28
82 27 0 0 -16 -894 -38 -1985z m-1069 1919 c0 -21 -16 -25 -57 -14 -40 11 -28
34 17 34 33 0 40 -3 40 -20z m669 -12 l24 -28 -36 -15 c-48 -20 -47 -20 -47
20 0 22 6 37 17 44 10 5 18 9 18 8 0 -1 11 -14 24 -29z m186 -165 c-3 -104
-10 -397 -15 -652 -6 -256 -13 -467 -16 -470 -4 -3 -4 89 0 204 3 116 9 411
12 658 4 250 11 447 16 447 5 0 6 -80 3 -187z m-755 151 c0 -11 -5 -14 -16
-10 -9 3 -25 6 -37 7 -20 1 -20 2 3 9 39 13 50 11 50 -6z m-60 -30 c41 -9 90
-19 108 -21 18 -3 32 -11 32 -19 0 -8 6 -14 13 -14 7 0 4 -7 -7 -15 -15 -12
-22 -12 -27 -3 -10 16 -72 -51 -99 -107 -22 -44 -26 -129 -10 -185 16 -52 61
-113 103 -135 37 -20 52 -40 21 -28 -9 3 -20 0 -25 -8 -7 -11 -9 -11 -9 4 0
24 -26 22 -33 -3 -7 -28 -27 -25 -27 5 0 17 -6 26 -17 27 -77 6 -79 9 -80 99
-1 86 -8 99 -50 99 -22 0 -23 4 -23 68 0 37 3 111 7 164 6 93 7 97 27 93 12
-3 55 -12 96 -21z m770 -32 c0 -12 -142 -60 -160 -54 -8 3 21 18 65 33 91 31
95 32 95 21z m-196 -17 c-10 -8 -28 -14 -39 -14 -15 0 -13 3 10 14 40 18 53
18 29 0z m-245 -30 c42 -21 106 -98 119 -143 14 -47 16 -121 3 -155 -12 -32
-77 -97 -97 -97 -12 0 -15 6 -9 23 31 102 29 170 -6 243 -25 53 -71 102 -104
110 -14 3 -25 10 -25 14 0 23 80 26 119 5z m410 -4 c-44 -22 -79 -32 -79 -22
0 7 83 38 105 40 6 0 -6 -8 -26 -18z m-244 -23 c14 -6 25 -15 25 -19 0 -4 20
-11 45 -15 41 -6 45 -9 45 -34 0 -20 -5 -27 -17 -26 -16 1 -18 -13 -21 -153
-2 -132 -5 -151 -17 -141 -8 7 -35 11 -64 8 l-49 -3 29 33 c16 18 32 44 35 57
4 15 13 25 24 25 34 0 43 95 10 105 -12 4 -20 15 -20 29 0 13 -13 50 -30 82
-38 75 -38 72 5 52z m-288 -14 c40 -20 103 -91 120 -137 45 -123 -28 -255
-135 -244 -45 5 -105 44 -126 82 -6 11 -14 22 -17 25 -18 17 -31 77 -27 130 5
67 24 101 78 138 39 26 60 28 107 6z m440 10 c-3 -3 -12 -4 -19 -1 -8 3 -5 6
6 6 11 1 17 -2 13 -5z m3 -69 c0 -14 -4 -25 -10 -25 -5 0 -10 11 -10 25 0 14
5 25 10 25 6 0 10 -11 10 -25z m107 -31 c-2 -3 -12 -2 -21 2 -20 8 -21 34 -1
34 8 0 16 6 16 13 1 6 4 -1 6 -16 3 -16 3 -31 0 -33z m-57 20 c0 -8 -4 -14
-10 -14 -5 0 -10 9 -10 21 0 11 5 17 10 14 6 -3 10 -13 10 -21z m-31 -50 c2
-2 4 -70 5 -152 l1 -148 -28 4 c-29 5 -48 22 -24 22 20 0 26 28 28 140 2 77
-1 96 -13 98 -29 6 -35 -21 -29 -120 5 -74 3 -99 -6 -103 -10 -3 -13 28 -13
136 l0 140 38 -7 c20 -4 39 -8 41 -10z m88 -86 c-2 -18 -4 -4 -4 32 0 36 2 50
4 33 2 -18 2 -48 0 -65z m-27 -74 c0 -115 -3 -155 -12 -152 -17 6 -18 308 0
308 9 0 12 -38 12 -156z m-913 24 c-2 -18 -4 -4 -4 32 0 36 2 50 4 33 2 -18 2
-48 0 -65z m713 60 c0 -13 -32 -6 -37 9 -3 7 3 9 16 6 12 -3 21 -10 21 -15z
m-173 -35 c-3 -10 -5 -2 -5 17 0 19 2 27 5 18 2 -10 2 -26 0 -35z m520 -45
c-2 -18 -4 -6 -4 27 0 33 2 48 4 33 2 -15 2 -42 0 -60z m-960 64 c7 -5 12 -32
11 -70 -1 -51 -4 -62 -15 -58 -8 4 -26 6 -39 6 -22 0 -24 4 -24 50 0 28 5 50
10 50 6 0 10 7 10 15 0 16 27 20 47 7z m720 -34 c-3 -8 -6 -5 -6 6 -1 11 2 17
5 13 3 -3 4 -12 1 -19z m0 -80 c-2 -13 -4 -5 -4 17 -1 22 1 32 4 23 2 -10 2
-28 0 -40z m-757 -58 c0 -16 -4 -30 -10 -30 -5 0 -10 14 -10 30 0 17 5 30 10
30 6 0 10 -13 10 -30z m40 -1 c0 -10 -7 -19 -15 -19 -9 0 -15 9 -15 25 0 18 4
23 15 19 8 -4 15 -15 15 -25z m490 -14 c-23 -25 -50 -33 -50 -16 0 5 -8 12
-17 14 -10 3 -2 5 17 6 19 1 42 6 50 11 25 16 25 11 0 -15z m121 8 c13 -17 13
-17 -6 -3 -11 8 -22 16 -24 17 -2 2 0 3 6 3 6 0 17 -8 24 -17z m-16 -19 c21
-18 23 -21 5 -10 -13 9 -40 16 -60 17 -29 0 -31 2 -15 9 31 13 38 12 70 -16z
m-268 -6 c-4 -14 -42 -12 -67 3 -10 6 -1 8 28 9 31 0 42 -4 39 -12z m50 -15
c-9 -9 -20 -13 -24 -9 -4 4 -1 11 7 16 25 16 35 11 17 -7z m286 -56 c1 -25 -3
-51 -8 -56 -7 -7 -9 2 -7 29 2 22 -1 54 -7 72 -11 30 -10 32 4 17 10 -9 17
-35 18 -62z m-139 51 c-5 -8 3 -9 29 -5 39 6 51 -3 62 -44 7 -29 -17 -63 -52
-74 -21 -6 -23 -3 -23 38 0 31 -6 49 -20 62 -19 17 -19 35 1 35 6 0 7 -5 3
-12z m-550 -7 c3 -4 76 -23 162 -42 123 -26 158 -37 161 -50 3 -10 11 -20 19
-23 10 -4 14 -25 14 -79 l0 -74 -167 34 c-131 27 -175 32 -200 24 -25 -7 -33
-6 -33 4 0 7 16 16 35 19 19 4 35 12 35 18 0 6 -13 8 -35 4 l-35 -7 0 91 c0
82 2 90 19 90 11 0 22 -4 25 -9z m746 -16 c0 -14 -4 -25 -10 -25 -5 0 -10 11
-10 25 0 14 5 25 10 25 6 0 10 -11 10 -25z m-190 -63 c0 -33 -8 -45 -38 -61
-48 -25 -120 64 -77 96 11 7 27 13 37 13 10 0 21 7 25 17 5 14 10 12 30 -11
13 -15 23 -39 23 -54z m247 36 c-3 -7 -5 -2 -5 12 0 14 2 19 5 13 2 -7 2 -19
0 -25z m53 8 c0 -19 -4 -23 -20 -19 -11 3 -20 14 -20 24 0 12 7 19 20 19 14 0
20 -7 20 -24z m-200 -66 c-6 -11 -15 -20 -21 -20 -6 0 -3 7 5 16 9 8 17 30 17
47 2 30 2 30 6 5 2 -15 -1 -36 -7 -48z m-790 30 c-19 -13 -30 -13 -30 0 0 6
10 10 23 10 18 0 19 -2 7 -10z m925 -30 c13 0 25 5 27 12 9 25 38 -1 38 -34 0
-22 -3 -28 -9 -20 -4 8 -14 12 -22 11 -8 -2 -38 0 -66 4 -37 5 -53 12 -53 22
0 9 10 15 25 15 14 0 26 6 26 13 1 6 3 4 6 -5 3 -11 14 -18 28 -18z m-2 -56
c36 -4 61 -12 64 -21 10 -27 -8 -163 -22 -163 -7 0 -15 -4 -17 -9 -3 -8 -65 1
-165 24 -12 3 -25 15 -29 27 -6 20 -8 20 -19 5 -14 -20 -19 -20 -85 -6 -39 8
-50 15 -50 30 0 10 7 19 15 19 11 0 15 12 15 46 0 25 4 43 9 40 5 -3 22 1 37
10 29 15 84 15 247 -2z m-303 -40 c0 -21 -4 -33 -10 -29 -5 3 -10 19 -10 36 0
16 5 29 10 29 6 0 10 -16 10 -36z m-42 -32 c3 -44 -1 -48 -45 -36 -19 5 -23
13 -23 49 l0 42 33 -6 c29 -6 32 -10 35 -49z m-118 -57 c157 -31 317 -64 355
-72 l70 -16 -67 -23 c-54 -18 -74 -20 -107 -13 -35 8 -55 4 -134 -22 -85 -30
-103 -32 -232 -33 -123 -1 -158 3 -289 32 -82 17 -151 32 -153 32 -9 0 -1 39
10 48 7 6 43 21 80 33 69 23 83 37 45 47 -18 4 -9 10 42 28 36 12 72 21 80 19
8 -2 143 -29 300 -60z m647 -37 c-2 -18 -4 -6 -4 27 0 33 2 48 4 33 2 -15 2
-42 0 -60z m-1112 32 c3 -5 -1 -10 -9 -10 -9 0 -16 5 -16 10 0 6 4 10 9 10 6
0 13 -4 16 -10z m985 -181 c0 -55 -3 -98 -8 -95 -12 7 -15 196 -3 196 7 0 11
-36 11 -101z m-56 -479 c-7 -300 -13 -622 -13 -715 l-1 -171 -125 -43 c-69
-24 -129 -41 -132 -37 -4 3 -1 282 5 619 7 336 12 633 12 659 l0 46 50 12 50
12 0 57 0 58 83 25 c45 14 82 25 83 24 0 0 -5 -246 -12 -546z m-976 512 c2 -7
-3 -12 -10 -12 -15 0 -38 19 -38 32 0 11 43 -7 48 -20z m799 -2 c2 0 3 -20 3
-45 0 -35 -3 -43 -15 -39 -8 4 -15 19 -15 34 0 20 -6 31 -20 35 -11 3 -20 12
-20 20 0 11 7 12 32 4 18 -5 34 -9 35 -9z m-667 -15 c47 -9 93 -19 103 -21 30
-9 18 -20 -18 -16 -28 3 -35 1 -35 -13 0 -15 -6 -17 -37 -11 -21 3 -44 6 -50
6 -7 0 -13 11 -13 24 0 19 -7 25 -35 30 -19 4 -35 12 -35 17 0 6 8 8 18 5 9
-2 55 -12 102 -21z m590 15 c0 -8 -60 -30 -82 -30 -19 0 -5 19 20 28 35 14 62
14 62 2z m-793 -152 c-2 -29 -3 -8 -3 47 0 55 1 79 3 53 2 -26 2 -71 0 -100z
m683 122 c0 -13 -43 -30 -76 -30 -21 0 -24 -4 -24 -40 l0 -40 -50 0 c-27 0
-50 5 -50 10 0 6 11 10 25 10 20 0 25 5 25 25 0 23 -4 25 -40 25 -29 0 -40 4
-40 15 0 12 15 15 68 16 37 1 81 5 97 9 44 11 65 11 65 0z m140 -9 c0 -5 -24
-17 -52 -26 -29 -10 -71 -25 -93 -35 -79 -35 -85 -35 -85 -1 0 28 3 31 33 32
17 0 59 9 92 19 69 20 105 24 105 11z m-783 -7 c-3 -3 -12 -4 -19 -1 -8 3 -5
6 6 6 11 1 17 -2 13 -5z m403 -10 c0 -12 -10 -14 -52 -12 -74 4 -77 28 -4 28
44 0 56 -3 56 -16z m-294 -21 c10 -14 29 -18 91 -20 43 -1 106 -5 141 -9 l63
-7 -7 -326 c-3 -179 -9 -486 -13 -681 l-6 -355 -60 -5 c-51 -4 -60 -8 -60 -25
0 -24 52 -46 64 -27 4 7 15 10 24 6 37 -14 13 -23 -65 -26 -75 -3 -83 -5 -83
-23 0 -21 -8 -20 163 -24 12 -1 22 -7 22 -16 0 -12 -15 -13 -84 -8 -106 7
-138 0 -134 -30 2 -15 11 -23 28 -26 22 -3 20 -5 -15 -15 -29 -8 -41 -18 -43
-33 -3 -18 -12 -22 -55 -28 -29 -3 -65 -9 -81 -12 l-29 -5 6 203 c4 112 11
485 18 829 6 344 12 635 15 647 3 16 13 23 37 26 17 2 36 5 41 5 5 1 15 -6 22
-15z m674 -8 c0 -21 -45 -37 -78 -28 -25 6 -24 7 23 24 28 10 51 18 53 18 1 1
2 -6 2 -14z m-313 -7 c-16 -10 -99 -10 -114 0 -7 5 18 8 56 8 38 -1 64 -4 58
-8z m256 -48 c4 0 6 -87 5 -192 l-3 -193 -2 182 -3 182 -58 12 c-42 9 -52 14
-37 19 11 4 35 3 55 -1 19 -5 38 -9 43 -9z m-68 -30 c49 -1 48 14 41 -476 -8
-591 -14 -731 -32 -738 -19 -7 -18 -70 1 -86 21 -17 3 -30 -42 -30 -38 0 -63
-22 -63 -56 0 -15 -6 -24 -15 -24 -8 0 -15 -7 -15 -15 0 -8 7 -15 15 -15 8 0
15 -4 15 -10 0 -5 -7 -10 -15 -10 -8 0 -15 -7 -15 -15 0 -8 7 -15 15 -15 8 0
15 -7 15 -15 0 -9 -6 -12 -16 -8 -12 4 -15 1 -12 -13 2 -10 10 -18 16 -17 7 2
12 -6 12 -17 0 -13 -5 -18 -15 -14 -10 4 -15 0 -15 -11 0 -11 5 -15 15 -11 11
4 15 -2 15 -24 0 -35 12 -44 65 -46 56 -2 62 -4 45 -13 -8 -5 -42 -5 -75 -1
-33 4 -63 5 -67 3 -5 -2 -8 3 -8 11 0 9 -4 16 -10 16 -5 0 -7 7 -3 16 3 9 0
20 -8 26 -11 7 -11 11 -1 15 14 6 16 33 2 33 -5 0 -10 7 -10 15 0 8 5 15 10
15 6 0 10 5 10 10 0 6 -10 10 -22 10 l-21 0 21 19 c24 20 29 41 10 41 -9 0 -9
3 0 12 17 17 15 41 -3 35 -8 -4 -17 -2 -20 3 -4 6 -15 10 -26 10 -10 0 -19 6
-19 13 0 9 10 12 30 9 27 -4 30 -1 30 22 0 23 -3 25 -30 20 -27 -6 -30 -4 -30
19 0 22 5 26 33 29 24 2 33 8 35 26 4 23 -7 29 -24 12 -13 -13 -44 -2 -44 15
0 8 14 15 33 17 l32 3 2 62 c1 56 -1 63 -20 69 -41 13 -50 50 -14 63 14 6 29
4 42 -5 26 -19 35 -18 35 5 0 11 -15 28 -35 41 -52 32 -65 48 -65 81 0 44 34
36 38 -9 2 -17 4 -32 5 -32 21 2 92 30 94 37 5 13 -60 11 -69 -2 -4 -5 -4 16
-1 46 5 48 3 59 -15 77 -20 20 -20 20 -1 25 18 5 19 14 17 106 -1 56 -4 101
-8 101 -3 0 -12 -6 -18 -12 -18 -18 -32 6 -32 54 0 36 1 37 30 32 28 -6 30 -4
31 22 0 16 1 48 3 72 1 32 -2 42 -14 43 -9 0 -5 4 8 10 32 12 19 31 -14 19
-32 -12 -31 -12 -37 3 -3 7 5 13 21 14 29 1 42 18 42 56 0 21 -6 30 -22 35
l-22 5 22 8 c18 7 22 16 22 52 0 41 -2 45 -29 50 -28 6 -29 9 -28 51 l2 45 60
3 c34 2 71 -2 85 -9 14 -7 34 -13 45 -13z m405 10 c0 -5 -4 -10 -10 -10 -5 0
-10 5 -10 10 0 6 5 10 10 10 6 0 10 -4 10 -10z m7 -77 c-3 -3 -13 -1 -21 4
-14 8 -14 11 2 33 l17 25 3 -28 c2 -16 1 -31 -1 -34z m-1090 -235 c-1 -51 -3
-10 -3 92 0 102 2 143 3 93 2 -51 2 -135 0 -185z m460 180 c-2 -18 -4 -4 -4
32 0 36 2 50 4 33 2 -18 2 -48 0 -65z m630 -70 c-4 -62 -7 -200 -7 -305 0
-191 0 -193 -22 -193 -21 0 -21 2 -15 122 4 66 7 204 7 305 0 181 0 183 22
183 21 0 21 -2 15 -112z m23 -79 c-9 -20 -10 -15 -5 25 3 27 6 72 7 100 1 37
3 30 5 -25 2 -41 -1 -86 -7 -100z m-1163 84 c-2 -16 -4 -3 -4 27 0 30 2 43 4
28 2 -16 2 -40 0 -55z m1190 -30 c-2 -21 -4 -4 -4 37 0 41 2 58 4 38 2 -21 2
-55 0 -75z m-1217 -38 c0 -83 -4 -135 -10 -135 -6 0 -10 41 -10 104 0 95 7
166 16 166 2 0 4 -61 4 -135z m1277 43 c-2 -18 -4 -6 -4 27 0 33 2 48 4 33 2
-15 2 -42 0 -60z m-1230 -110 c-2 -24 -4 -7 -4 37 0 44 2 63 4 43 2 -21 2 -57
0 -80z m548 93 c3 -5 1 -12 -5 -16 -5 -3 -10 1 -10 9 0 18 6 21 15 7z m616
-563 c-6 -282 -11 -558 -11 -613 0 -63 -3 -96 -10 -89 -9 9 6 1122 16 1193 14
91 15 -20 5 -491z m-1164 279 c-2 -23 -3 -1 -3 48 0 50 1 68 3 42 2 -26 2 -67
0 -90z m480 -119 c-2 -24 -4 -7 -4 37 0 44 2 63 4 43 2 -21 2 -57 0 -80z m290
-130 c-1 -46 -3 -11 -3 77 0 88 2 125 3 83 2 -42 2 -114 0 -160z m-750 -30
c-1 -46 -3 -9 -3 82 0 91 2 128 3 83 2 -46 2 -120 0 -165z m513 156 c0 -8 -7
-14 -15 -14 -15 0 -21 21 -9 33 10 9 24 -2 24 -19z m687 -76 c-2 -18 -4 -6 -4
27 0 33 2 48 4 33 2 -15 2 -42 0 -60z m-684 17 c7 -16 -8 -29 -23 -20 -15 9
-12 35 4 35 8 0 16 -7 19 -15z m577 -32 c0 -13 -3 -13 -15 -3 -8 7 -15 16 -15
21 0 5 7 6 15 3 8 -4 15 -13 15 -21z m17 -50 c-3 -10 -5 -4 -5 12 0 17 2 24 5
18 2 -7 2 -21 0 -30z m-38 -180 c-1 -204 -14 -431 -18 -333 -2 30 -4 69 -6 85
-6 57 8 435 17 435 4 0 7 -84 7 -187z m-562 152 c8 -23 -4 -30 -21 -12 -8 8
-12 17 -9 21 11 11 23 7 30 -9z m-540 -187 c-2 -35 -3 -7 -3 62 0 69 1 97 3
63 2 -35 2 -91 0 -125z m480 -140 c-2 -24 -4 -7 -4 37 0 44 2 63 4 43 2 -21 2
-57 0 -80z m290 -125 c-2 -38 -3 -7 -3 67 0 74 1 105 3 68 2 -38 2 -98 0 -135z
m-750 -25 c-1 -40 -3 -8 -3 72 0 80 2 112 3 73 2 -40 2 -106 0 -145z m508 172
c3 -6 -1 -7 -9 -4 -18 7 -21 14 -7 14 6 0 13 -4 16 -10z m692 -92 c-2 -18 -4
-6 -4 27 0 33 2 48 4 33 2 -15 2 -42 0 -60z m-684 57 c4 -8 2 -17 -3 -20 -6
-4 -10 3 -10 14 0 25 6 27 13 6z m594 -137 c-3 -7 -5 -2 -5 12 0 14 2 19 5 13
2 -7 2 -19 0 -25z m-1140 -231 c-1 -45 -3 -5 -3 88 0 94 2 130 3 82 2 -48 2
-125 0 -170z m1063 115 l0 -139 -47 -11 c-27 -6 -88 -22 -137 -36 l-89 -25 6
126 c4 69 9 128 12 131 4 4 230 86 253 91 1 1 2 -61 2 -137z m-609 49 c18 -15
21 -22 12 -31 -8 -9 -11 -8 -10 6 2 13 -9 22 -33 31 -25 8 -29 12 -14 12 12 1
32 -8 45 -18z m322 -138 c-3 -71 -6 -129 -7 -129 0 -1 -20 -5 -44 -9 l-43 -7
3 129 3 128 35 6 c19 4 40 7 47 8 9 1 10 -31 6 -126z m325 -138 c-2 -183 -6
-255 -14 -255 -9 0 -11 41 -10 140 0 77 4 140 9 140 4 0 7 7 7 15 0 8 -3 15
-7 15 -6 0 0 182 6 198 9 21 11 -41 9 -253z m-698 215 c-36 -12 -118 -12 -125
0 -4 6 22 10 72 9 54 -1 70 -3 53 -9z m-25 -59 c-6 -4 -32 -5 -60 -1 l-50 7
60 2 c34 0 55 -3 50 -8z m110 -1 c-3 -5 -12 -10 -18 -10 -7 0 -6 4 3 10 19 12
23 12 15 0z m-113 -17 c43 4 78 5 78 3 0 -2 -29 -9 -63 -16 -67 -12 -154 0
-142 20 4 6 14 6 27 -1 14 -8 49 -10 100 -6z m146 -44 c-3 -8 -7 -3 -11 10 -4
17 -3 21 5 13 5 -5 8 -16 6 -23z m619 -116 c-2 -27 -3 -5 -3 47 0 52 1 74 3
48 2 -27 2 -69 0 -95z m20 60 c-2 -16 -4 -5 -4 22 0 28 2 40 4 28 2 -13 2 -35
0 -50z m-736 40 c4 -4 -35 -6 -88 -4 -72 2 -98 0 -104 -10 -7 -11 -9 -11 -9
-1 0 7 10 17 23 22 25 11 165 6 178 -7z m4 -33 c-11 -5 -49 -9 -85 -9 -36 0
-74 4 -85 9 -13 6 18 9 85 9 67 0 98 -3 85 -9z m625 -145 l0 -154 -67 -21
c-38 -11 -76 -23 -85 -26 -16 -5 -18 3 -18 76 l0 82 -25 -6 c-14 -3 -37 -9
-52 -12 -22 -6 -25 -4 -20 10 4 10 7 46 7 80 l0 62 118 31 c64 17 123 32 130
32 9 1 12 -36 12 -154z m-876 113 c-39 -14 -71 -18 -89 -14 -37 9 -29 15 41
25 98 14 113 11 48 -11z m236 -2 l65 -13 -111 5 c-124 5 -174 -2 -155 -21 8
-8 54 -12 141 -12 71 0 122 -4 115 -8 -21 -12 -216 -10 -247 2 -45 17 -35 37
26 52 47 11 94 9 166 -5z m807 -88 c-2 -18 -4 -6 -4 27 0 33 2 48 4 33 2 -15
2 -42 0 -60z m-1139 56 c41 -6 42 -8 42 -45 0 -30 -3 -37 -15 -33 -8 4 -15 16
-15 29 0 20 -6 24 -50 30 -35 5 -50 11 -50 22 0 11 7 14 23 10 12 -4 41 -9 65
-13z m252 6 c0 -12 -37 -12 -65 0 -15 7 -10 9 23 9 23 1 42 -3 42 -9z m60 0
c11 -7 7 -10 -17 -10 -18 0 -33 5 -33 10 0 13 30 13 50 0z m377 -97 c-2 -21
-4 -6 -4 32 0 39 2 55 4 38 2 -18 2 -50 0 -70z m-587 67 c0 -5 -6 -10 -13 -10
-8 0 -19 -10 -25 -22 -11 -23 -11 -23 -11 4 -1 14 5 29 12 31 21 9 37 7 37 -3z
m360 -10 c13 -9 13 -10 0 -9 -8 0 -24 4 -35 9 l-20 9 20 0 c11 0 27 -4 35 -9z
m30 -21 c-14 -26 -18 -24 -12 6 2 14 8 22 13 19 5 -3 5 -14 -1 -25z m-553 -31
c-2 -13 -4 -5 -4 17 -1 22 1 32 4 23 2 -10 2 -28 0 -40z m262 48 c-2 -2 -24
-6 -49 -10 -31 -4 -40 -3 -30 4 13 9 89 15 79 6z m141 -6 c0 -13 -11 -13 -30
0 -12 8 -11 10 8 10 12 0 22 -4 22 -10z m-362 -22 c-5 -32 -28 -35 -28 -4 0
17 5 26 16 26 10 0 14 -7 12 -22z m405 15 c-7 -2 -19 -2 -25 0 -7 3 -2 5 12 5
14 0 19 -2 13 -5z m180 -3 c15 0 18 -3 10 -11 -12 -12 -63 -2 -63 13 0 6 7 7
16 4 9 -3 25 -6 37 -6z m-470 -15 c-3 -9 -8 -14 -10 -11 -3 3 -2 9 2 15 9 16
15 13 8 -4z m192 8 c14 -5 12 -8 -11 -18 -16 -6 -37 -9 -48 -7 -16 4 -14 7 10
18 16 7 30 13 31 13 1 1 9 -2 18 -6z m791 -330 c-9 -461 -17 -703 -25 -703 -3
0 -3 96 0 212 4 117 7 303 8 414 1 204 10 414 18 414 3 0 2 -152 -1 -337z
m-406 301 c0 -25 -2 -26 -37 -19 -56 10 -61 17 -22 31 51 18 59 17 59 -12z
m-385 -7 c82 1 104 -1 85 -9 -33 -13 -230 -5 -255 10 -17 10 -14 11 20 5 22
-5 90 -7 150 -6z m142 7 c-3 -3 -12 -4 -19 -1 -8 3 -5 6 6 6 11 1 17 -2 13 -5z
m-393 -13 c15 -6 5 -12 -43 -25 -75 -21 -91 -14 -30 13 50 22 48 22 73 12z
m646 -48 c0 -9 -8 -12 -22 -8 -115 26 -118 26 -118 -7 0 -10 -4 -18 -10 -18
-5 0 -10 17 -10 38 l0 39 80 -16 c52 -10 80 -19 80 -28z m-547 30 c-7 -2 -19
-2 -25 0 -7 3 -2 5 12 5 14 0 19 -2 13 -5z m914 -55 c-2 -13 -4 -3 -4 22 0 25
2 35 4 23 2 -13 2 -33 0 -45z m-1022 33 c-6 -5 -23 -12 -40 -15 -28 -6 -28 -5
5 8 43 18 46 18 35 7z m39 -6 c-4 -8 -10 -12 -15 -9 -11 6 -2 24 11 24 5 0 7
-7 4 -15z m286 6 l45 -7 -34 -12 c-37 -13 -116 -15 -201 -5 l-55 6 40 13 c45
13 137 16 205 5z m438 -156 c-2 -2 -19 0 -37 4 -38 7 -55 31 -22 31 18 0 21 6
21 49 0 39 4 50 18 53 15 3 17 -6 20 -66 2 -37 2 -70 0 -71z m-100 120 c24 0
42 -4 42 -10 0 -10 -278 -106 -302 -105 -5 0 -8 10 -8 23 0 20 10 26 70 46 56
18 70 26 70 42 0 19 4 20 43 12 23 -4 61 -8 85 -8z m-555 -2 c-7 -2 -19 -2
-25 0 -7 3 -2 5 12 5 14 0 19 -2 13 -5z m290 0 c-7 -2 -21 -2 -30 0 -10 3 -4
5 12 5 17 0 24 -2 18 -5z m-458 -32 c-6 -5 -25 10 -25 20 0 5 6 4 14 -3 8 -7
12 -15 11 -17z m165 8 c25 -4 82 -8 128 -8 l82 -1 0 -29 c0 -28 -2 -29 -27
-21 -43 13 -202 48 -255 55 -28 4 -45 11 -42 17 4 6 20 7 38 3 17 -4 51 -11
76 -16z m195 11 c-39 -10 -114 -10 -145 0 -16 5 11 8 75 8 66 0 90 -3 70 -8z
m181 3 c-11 -11 -99 -43 -116 -42 -8 0 12 11 45 24 63 25 83 30 71 18z m-546
-49 c0 -2 -9 0 -20 6 -11 6 -20 13 -20 16 0 2 9 0 20 -6 11 -6 20 -13 20 -16z
m83 9 c-7 -2 -19 -2 -25 0 -7 3 -2 5 12 5 14 0 19 -2 13 -5z m687 -3 c0 -5 -4
-10 -10 -10 -5 0 -10 5 -10 10 0 6 5 10 10 10 6 0 10 -4 10 -10z m-578 -26 c4
-3 8 -13 8 -23 0 -13 10 -21 35 -25 19 -4 35 -12 35 -17 0 -6 -8 -8 -17 -5
-10 2 -56 12 -103 21 -106 20 -120 24 -120 35 0 4 16 4 35 0 32 -7 35 -6 35
15 0 22 2 22 42 14 23 -6 45 -12 50 -15z m-182 -10 c0 -10 -6 -11 -22 -5 -31
11 -34 29 -3 24 14 -3 25 -11 25 -19z m440 -7 c0 -19 2 -36 5 -39 5 -5 117 8
148 18 11 3 17 0 17 -9 0 -9 -20 -18 -57 -26 -70 -14 -163 -14 -163 -1 0 6 7
10 15 10 11 0 15 11 15 40 0 22 5 40 10 40 6 0 10 -15 10 -33z m602 11 c-7 -7
-12 -20 -12 -30 0 -10 -4 -18 -10 -18 -5 0 -10 8 -10 17 0 18 30 56 38 48 3
-3 0 -11 -6 -17z m-324 -10 c-2 -6 -21 -17 -41 -24 -30 -11 -37 -11 -37 0 0 7
15 18 33 24 44 14 49 14 45 0z m282 -23 c0 -14 -4 -25 -9 -25 -5 0 -12 -8 -14
-17 -4 -15 -6 -14 -12 5 -7 22 -32 25 -27 3 1 -6 -2 -11 -8 -11 -5 0 -10 9
-10 20 0 11 -6 20 -12 21 -17 1 52 27 75 28 12 1 17 -7 17 -24z m-607 8 c-7
-2 -21 -2 -30 0 -10 3 -4 5 12 5 17 0 24 -2 18 -5z m-325 -25 l52 -11 0 -162
0 -161 -67 -20 c-63 -18 -68 -21 -65 -44 2 -14 5 -27 7 -28 2 -2 28 3 58 12
30 9 58 16 62 16 3 0 5 -26 3 -57 l-3 -57 -72 -22 c-40 -12 -73 -19 -74 -16
-3 26 2 368 8 460 5 98 8 112 22 107 9 -4 40 -11 69 -17z m325 5 c-7 -2 -19
-2 -25 0 -7 3 -2 5 12 5 14 0 19 -2 13 -5z m497 -8 c0 -8 -4 -15 -10 -15 -5 0
-10 7 -10 15 0 8 5 15 10 15 6 0 10 -7 10 -15z m-542 -5 c17 0 32 -4 32 -10 0
-5 -25 -10 -55 -10 -44 0 -55 3 -55 16 0 12 6 15 23 10 12 -3 37 -6 55 -6z
m450 -11 c56 -10 62 -14 62 -36 0 -16 7 -27 19 -30 14 -4 21 -15 23 -42 3 -35
4 -36 43 -36 22 1 54 4 72 8 l31 8 -5 -316 c-5 -252 -3 -319 7 -325 20 -12 4
-70 -31 -118 -32 -44 -82 -77 -99 -67 -10 6 -51 -12 -61 -27 -3 -4 -50 1 -104
12 -99 20 -131 39 -118 70 10 23 21 299 22 535 1 116 4 247 8 292 6 84 13 96
53 87 8 -1 43 -8 78 -15z m-841 -56 c-2 -16 -4 -5 -4 22 0 28 2 40 4 28 2 -13
2 -35 0 -50z m215 -190 c-2 -137 -6 -250 -7 -252 -2 -1 -8 0 -14 4 -7 4 -11
88 -11 251 0 228 1 244 18 244 17 0 18 -15 14 -247z m27 160 c-1 -54 -3 -69
-8 -48 -7 29 -3 125 5 125 2 0 4 -35 3 -77z m406 -295 c-3 -205 -9 -402 -12
-438 -4 -36 -7 -72 -8 -80 0 -8 -3 -14 -7 -12 -40 15 -39 2 -34 281 2 146 5
343 5 438 1 155 3 172 19 176 45 12 44 28 37 -365z m-370 352 c3 -5 1 -10 -4
-10 -6 0 -11 5 -11 10 0 6 2 10 4 10 3 0 8 -4 11 -10z m103 3 c-10 -2 -28 -2
-40 0 -13 2 -5 4 17 4 22 1 32 -1 23 -4z m142 1 c0 -41 -64 -67 -167 -68 -77
-1 -109 13 -84 37 11 10 14 10 18 0 11 -30 202 -4 196 26 -2 6 6 11 17 11 11
0 20 -3 20 -6z m647 -41 c-3 -10 -5 -2 -5 17 0 19 2 27 5 18 2 -10 2 -26 0
-35z m-724 30 c-7 -2 -19 -2 -25 0 -7 3 -2 5 12 5 14 0 19 -2 13 -5z m97 -100
c0 -58 -2 -104 -5 -101 -9 9 -9 208 0 208 3 0 5 -48 5 -107z m-160 87 c11 -7
4 -10 -27 -10 -23 0 -45 5 -48 10 -8 13 55 13 75 0z m609 -6 c2 -2 -3 -4 -12
-4 -12 0 -17 -9 -18 -27 -2 -27 -2 -27 -6 -3 -2 14 -12 31 -21 38 -14 10 -11
11 18 6 19 -4 37 -8 39 -10z m41 -4 c0 -5 -7 -10 -15 -10 -8 0 -15 5 -15 10 0
6 7 10 15 10 8 0 15 -4 15 -10z m37 4 c-3 -3 -12 -4 -19 -1 -8 3 -5 6 6 6 11
1 17 -2 13 -5z m23 -32 c0 -14 -13 -21 -51 -30 -68 -16 -69 -16 -69 13 0 22 4
24 58 28 31 2 58 4 60 5 1 1 2 -6 2 -16z m-580 -22 c0 -15 -13 -26 -46 -41
-81 -34 -213 -23 -198 16 5 12 22 15 78 13 l71 -2 -70 -6 -70 -6 76 -2 c82 -2
139 12 139 34 0 8 5 14 10 14 6 0 10 -9 10 -20z m-223 4 c-3 -3 -12 -4 -19 -1
-8 3 -5 6 6 6 11 1 17 -2 13 -5z m163 -4 c0 -5 -7 -7 -15 -4 -8 4 -15 8 -15
10 0 2 7 4 15 4 8 0 15 -4 15 -10z m747 -112 c-2 -18 -4 -6 -4 27 0 33 2 48 4
33 2 -15 2 -42 0 -60z m-689 25 c-22 -27 -83 -45 -156 -46 -55 -1 -75 2 -82
13 -5 8 -10 17 -10 20 0 3 39 4 87 2 83 -3 145 8 142 25 -3 20 2 24 16 13 12
-10 13 -16 3 -27z m-258 3 c0 -3 -4 -8 -10 -11 -5 -3 -10 -1 -10 4 0 6 5 11
10 11 6 0 10 -2 10 -4z m113 -3 c-13 -2 -35 -2 -50 0 -16 2 -5 4 22 4 28 0 40
-2 28 -4z m-92 -61 c-11 -2 -22 -13 -24 -25 -3 -13 -5 -7 -6 15 -1 35 0 36 24
25 22 -11 23 -12 6 -15z m237 2 c-2 -9 -15 -26 -29 -36 -35 -26 -175 -37 -203
-15 -11 8 -16 19 -11 26 5 9 10 10 18 2 27 -27 204 -4 193 25 -4 9 1 14 15 14
14 0 19 -5 17 -16z m-65 -1 c-7 -2 -21 -2 -30 0 -10 3 -4 5 12 5 17 0 24 -2
18 -5z m-68 -13 c26 -6 22 -8 -23 -9 -33 -1 -51 3 -47 9 7 11 26 11 70 0z
m152 -52 c-3 -7 -5 -2 -5 12 0 14 2 19 5 13 2 -7 2 -19 0 -25z m580 -45 c-2
-16 -4 -3 -4 27 0 30 2 43 4 28 2 -16 2 -40 0 -55z m-597 24 c0 -4 -19 -17
-42 -27 -57 -26 -193 -28 -202 -4 -3 9 -6 16 -6 17 0 1 43 0 95 -1 91 -4 96
-3 117 21 21 24 37 21 38 -6z m157 -4 c-3 -10 -5 -4 -5 12 0 17 2 24 5 18 2
-7 2 -21 0 -30z m-507 0 c0 -5 -25 -15 -55 -24 -30 -9 -55 -13 -55 -8 0 5 21
15 48 23 56 17 62 18 62 9z m218 0 c-15 -2 -42 -2 -60 0 -18 2 -6 4 27 4 33 0
48 -2 33 -4z m152 -270 c-1 -137 0 -257 1 -267 2 -10 -2 -21 -8 -23 -8 -3 -13
4 -13 19 0 16 -10 29 -34 42 -19 10 -47 31 -62 47 l-28 29 32 0 c17 0 34 -4
37 -10 3 -5 17 -10 29 -10 20 0 24 6 29 48 3 26 5 106 6 177 0 184 0 195 7
195 3 0 5 -111 4 -247z m-27 200 c-8 -20 -65 -41 -131 -48 -64 -8 -112 6 -112
31 0 12 4 14 18 8 9 -5 49 -8 88 -8 70 2 120 17 109 34 -7 12 19 19 27 7 3 -6
4 -16 1 -24z m-238 17 c3 -5 1 -10 -4 -10 -6 0 -11 5 -11 10 0 6 2 10 4 10 3
0 8 -4 11 -10z m110 -20 c-8 -13 -45 -13 -65 0 -11 7 -3 10 28 10 26 0 41 -4
37 -10z m125 -60 c0 -30 -76 -60 -151 -60 -72 0 -106 14 -88 36 9 11 15 12 26
3 9 -8 38 -10 87 -6 87 8 109 15 102 33 -3 8 1 14 9 14 8 0 15 -9 15 -20z
m-223 4 c-3 -3 -12 -4 -19 -1 -8 3 -5 6 6 6 11 1 17 -2 13 -5z m166 -1 c-7 -2
-19 -2 -25 0 -7 3 -2 5 12 5 14 0 19 -2 13 -5z m-80 -20 c-13 -2 -33 -2 -45 0
-13 2 -3 4 22 4 25 0 35 -2 23 -4z m-153 -50 c0 -19 8 -73 17 -121 14 -71 23
-92 48 -117 16 -17 42 -45 57 -62 27 -32 99 -77 128 -79 8 0 22 -2 31 -3 11
-1 14 -9 11 -31 -2 -16 -6 -30 -7 -30 -15 0 -35 15 -35 25 0 8 -17 16 -39 20
-99 17 -223 213 -247 392 -6 49 -5 51 15 46 16 -4 21 -13 21 -40z m30 -57 c5
-25 5 -35 -1 -29 -6 6 -12 34 -13 64 -2 30 -2 43 1 29 2 -14 8 -42 13 -64z
m-80 37 c0 -59 48 -199 87 -256 15 -22 44 -58 64 -79 20 -21 34 -40 30 -42 -3
-2 -29 -11 -58 -20 -48 -16 -54 -16 -77 -1 -37 25 -94 102 -131 180 -34 72
-63 191 -52 217 4 13 89 45 125 47 8 1 12 -15 12 -46z m100 16 c0 -5 -4 -9
-10 -9 -5 0 -10 7 -10 16 0 8 5 12 10 9 6 -3 10 -10 10 -16z m243 7 c13 -34
-65 -67 -157 -68 -72 0 -105 14 -85 38 8 10 31 13 73 12 l61 -1 -60 -7 -60 -7
66 -1 c89 -3 131 7 136 30 6 21 19 24 26 4z m-526 -18 c-3 -8 -6 -5 -6 6 -1
11 2 17 5 13 3 -3 4 -12 1 -19z m470 6 c-3 -3 -12 -4 -19 -1 -8 3 -5 6 6 6 11
1 17 -2 13 -5z m-450 -71 c-3 -10 -5 -2 -5 17 0 19 2 27 5 18 2 -10 2 -26 0
-35z m507 9 c25 -41 -156 -91 -227 -63 -28 11 -33 40 -6 32 8 -3 49 -4 91 -4
77 2 124 16 113 34 -4 5 1 9 9 9 8 0 17 -4 20 -8z m-76 -9 c-10 -2 -26 -2 -35
0 -10 3 -2 5 17 5 19 0 27 -2 18 -5z m-78 -13 c0 -12 -8 -12 -35 0 -18 8 -17
9 8 9 15 1 27 -3 27 -9z m837 -72 c-2 -18 -4 -6 -4 27 0 33 2 48 4 33 2 -15 2
-42 0 -60z m-932 22 c3 -5 1 -10 -4 -10 -6 0 -11 5 -11 10 0 6 2 10 4 10 3 0
8 -4 11 -10z m244 -4 c14 -16 -4 -30 -69 -53 -49 -18 -154 -17 -170 2 -15 18
-3 42 13 26 12 -12 90 -14 151 -4 26 4 40 12 44 25 5 22 15 23 31 4z m-59 -6
c0 -5 -4 -10 -9 -10 -6 0 -13 5 -16 10 -3 6 1 10 9 10 9 0 16 -4 16 -10z m-51
-16 c2 -2 -20 -4 -50 -4 -36 0 -49 3 -40 9 13 8 79 4 90 -5z m971 -87 c-16
-85 -65 -179 -120 -230 -54 -51 -52 -50 -119 -76 l-52 -21 24 32 c48 65 85
153 98 236 l12 81 81 28 c45 16 83 24 85 20 2 -5 -2 -36 -9 -70z m-866 32 c-3
-5 -10 -7 -15 -3 -5 3 -7 10 -3 15 3 5 10 7 15 3 5 -3 7 -10 3 -15z m-86 -50
c55 -54 59 -59 40 -59 -19 1 -126 110 -108 110 8 0 39 -23 68 -51z m719 9 c-3
-7 -5 -2 -5 12 0 14 2 19 5 13 2 -7 2 -19 0 -25z m23 -13 c-6 -30 -8 -33 -9
-13 -1 25 8 62 14 56 2 -2 -1 -21 -5 -43z m31 -15 c-7 -36 -9 -39 -10 -15 -1
33 11 85 16 70 1 -6 -1 -30 -6 -55z m-780 -37 c13 -16 12 -17 -3 -4 -17 13
-22 21 -14 21 2 0 10 -8 17 -17z m734 -33 c-9 -41 -17 -33 -9 9 4 17 9 30 11
27 3 -2 2 -19 -2 -36z m-648 14 c-3 -3 -12 -4 -19 -1 -8 3 -5 6 6 6 11 1 17
-2 13 -5z m60 -46 c-3 -8 -6 -5 -6 6 -1 11 2 17 5 13 3 -3 4 -12 1 -19z m610
0 c-3 -8 -6 -5 -6 6 -1 11 2 17 5 13 3 -3 4 -12 1 -19z m-117 -9 c-30 -24 -54
-35 -100 -43 -26 -4 -22 -1 17 13 29 11 63 27 75 35 32 23 38 19 8 -5z m-523
-36 c-3 -10 -5 -4 -5 12 0 17 2 24 5 18 2 -7 2 -21 0 -30z m143 -8 c0 -31 -3
-35 -25 -35 -19 0 -25 5 -25 23 0 19 7 26 48 46 1 0 2 -15 2 -34z m-123 -7
c-3 -7 -5 -2 -5 12 0 14 2 19 5 13 2 -7 2 -19 0 -25z m245 14 c93 -21 92 -36
-5 -47 -76 -8 -97 1 -97 41 0 28 1 28 102 6z m319 -5 c-10 -9 -11 -8 -5 6 3
10 9 15 12 12 3 -3 0 -11 -7 -18z m-501 -10 c0 -13 -6 -18 -22 -15 -33 4 -35
33 -3 33 17 0 25 -5 25 -18z m136 -72 c16 -3 23 -14 26 -40 l4 -35 -56 5 c-78
6 -297 52 -342 72 -32 14 -38 21 -38 49 l0 31 193 -38 c105 -21 202 -41 213
-44z m263 41 c-37 -37 -44 -39 -101 -37 -33 1 -38 4 -38 26 0 27 35 54 43 32
3 -9 17 -9 63 3 32 9 61 14 63 13 3 -2 -11 -19 -30 -37z m-682 -3 c-3 -3 -11
-2 -17 2 -9 6 -9 10 1 16 14 8 27 -7 16 -18z m533 -47 c0 -41 -69 -45 -70 -4
0 6 44 25 63 27 4 1 7 -10 7 -23z m240 11 c0 -2 -15 -16 -32 -33 l-33 -29 29
33 c28 30 36 37 36 29z m-581 -83 c116 -24 152 -36 140 -48 -3 -4 -185 30
-266 49 -24 6 -32 25 -12 25 7 0 69 -12 138 -26z m506 16 c-3 -5 -16 -15 -28
-21 -19 -9 -19 -8 3 10 28 23 34 26 25 11z m-68 -16 c-3 -3 -12 -4 -19 -1 -8
3 -5 6 6 6 11 1 17 -2 13 -5z m-47 -14 c-25 -16 -97 -23 -137 -14 -34 8 -29 9
47 14 47 4 90 7 95 8 6 1 3 -3 -5 -8z m-183 -32 c-19 -12 -37 -9 -37 6 0 17
32 26 42 12 4 -6 2 -14 -5 -18z m-50 -10 c-3 -7 -5 -2 -5 12 0 14 2 19 5 13 2
-7 2 -19 0 -25z m255 20 c-7 -7 -49 -13 -99 -14 l-88 -3 88 9 c49 5 91 11 95
14 3 3 8 6 11 6 3 0 0 -5 -7 -12z"/>
<path d="M4990 6005 c0 -8 7 -15 15 -15 8 0 15 7 15 15 0 8 -7 15 -15 15 -8 0
-15 -7 -15 -15z"/>
<path d="M5170 5965 c0 -8 5 -15 10 -15 6 0 10 7 10 15 0 8 -4 15 -10 15 -5 0
-10 -7 -10 -15z"/>
<path d="M5257 5964 c-8 -8 1 -24 14 -24 5 0 9 7 9 15 0 15 -12 20 -23 9z"/>
<path d="M5250 5865 c0 -8 7 -15 15 -15 8 0 15 7 15 15 0 8 -7 15 -15 15 -8 0
-15 -7 -15 -15z"/>
<path d="M5040 5825 c0 -8 5 -15 10 -15 6 0 10 7 10 15 0 8 -4 15 -10 15 -5 0
-10 -7 -10 -15z"/>
<path d="M4660 5675 c0 -8 5 -15 10 -15 6 0 10 7 10 15 0 8 -4 15 -10 15 -5 0
-10 -7 -10 -15z"/>
<path d="M4700 5665 c0 -8 7 -15 15 -15 8 0 15 7 15 15 0 8 -7 15 -15 15 -8 0
-15 -7 -15 -15z"/>
<path d="M4790 5650 c0 -5 5 -10 10 -10 6 0 10 5 10 10 0 6 -4 10 -10 10 -5 0
-10 -4 -10 -10z"/>
<path d="M4700 5585 c0 -8 7 -15 15 -15 8 0 15 7 15 15 0 8 -7 15 -15 15 -8 0
-15 -7 -15 -15z"/>
<path d="M4740 5585 c0 -8 5 -15 10 -15 6 0 10 7 10 15 0 8 -4 15 -10 15 -5 0
-10 -7 -10 -15z"/>
<path d="M4847 5480 c4 -60 3 -80 -6 -80 -7 0 -11 -10 -9 -22 2 -19 9 -23 38
-23 64 -1 138 -16 144 -31 3 -8 12 -14 21 -14 20 0 31 28 16 43 -14 14 -15
117 -1 117 15 0 12 50 -2 51 -7 1 -23 0 -35 -1 -35 -2 -133 20 -133 31 0 5 -9
9 -20 9 -18 0 -19 -5 -13 -80z m116 25 c56 -9 67 -23 67 -94 0 -58 2 -57 -96
-39 l-64 11 0 70 c0 67 1 69 23 64 12 -3 44 -9 70 -12z"/>
<path d="M4883 5090 c-19 -8 -33 -30 -19 -30 15 0 66 24 66 31 0 11 -18 11
-47 -1z"/>
<path d="M4800 5071 c0 -5 -13 -14 -30 -20 -16 -5 -30 -15 -30 -20 0 -14 2
-14 50 5 39 16 55 44 25 44 -8 0 -15 -4 -15 -9z"/>
<path d="M4892 5049 c2 -6 8 -10 13 -10 5 0 11 4 13 10 2 6 -4 11 -13 11 -9 0
-15 -5 -13 -11z"/>
<path d="M5352 5008 c6 -18 28 -21 28 -4 0 9 -7 16 -16 16 -9 0 -14 -5 -12
-12z"/>
<path d="M5486 4941 c-4 -6 -3 -19 3 -28 9 -17 10 -17 17 0 8 21 -10 45 -20
28z"/>
<path d="M5300 4891 c0 -12 6 -21 16 -21 9 0 14 7 12 17 -5 25 -28 28 -28 4z"/>
<path d="M5052 4958 c2 -15 11 -24 26 -26 20 -3 23 0 20 20 -2 15 -11 24 -26
26 -20 3 -23 0 -20 -20z m28 2 c0 -5 -4 -10 -10 -10 -5 0 -10 5 -10 10 0 6 5
10 10 10 6 0 10 -4 10 -10z"/>
<path d="M4690 4085 c0 -22 -4 -25 -35 -25 -28 0 -35 -4 -35 -20 0 -16 7 -20
30 -20 25 0 30 -4 30 -25 0 -20 5 -25 25 -25 20 0 25 5 25 24 0 19 7 26 30 31
17 4 30 13 30 21 0 9 -11 14 -30 14 -25 0 -30 4 -30 25 0 18 -5 25 -20 25 -15
0 -20 -7 -20 -25z m58 -36 l27 -2 -27 -4 c-23 -4 -28 -10 -30 -36 l-1 -32 -4
34 c-4 31 -6 33 -39 29 -19 -2 -34 0 -34 4 0 4 16 8 35 8 31 0 35 3 36 28 l2
27 4 -27 c3 -22 10 -28 31 -29z"/>
<path d="M4600 3674 c0 -24 3 -26 31 -20 17 3 58 6 90 6 52 0 59 2 59 20 0 19
-7 20 -90 20 l-90 0 0 -26z m169 12 c-2 -2 -34 -7 -71 -11 -46 -4 -68 -3 -68
4 0 7 27 11 72 11 39 0 69 -2 67 -4z"/>
<path d="M4728 3613 c-20 -5 -24 -23 -5 -23 24 0 57 12 57 21 0 9 -22 10 -52
2z"/>
<path d="M4613 3583 c-28 -5 -30 -23 -4 -23 26 0 51 10 51 21 0 9 -8 10 -47 2z"/>
<path d="M4501 3551 c-20 -5 -43 -31 -28 -31 16 0 67 24 67 31 0 10 -4 10 -39
0z"/>
<path d="M4940 4546 c0 -9 7 -16 16 -16 9 0 14 5 12 12 -6 18 -28 21 -28 4z"/>
<path d="M4982 4538 c6 -18 28 -21 28 -4 0 9 -7 16 -16 16 -9 0 -14 -5 -12
-12z"/>
<path d="M5030 4525 c0 -8 5 -15 10 -15 6 0 10 7 10 15 0 8 -4 15 -10 15 -5 0
-10 -7 -10 -15z"/>
<path d="M5070 4515 c0 -8 7 -15 15 -15 8 0 15 7 15 15 0 8 -7 15 -15 15 -8 0
-15 -7 -15 -15z"/>
<path d="M5112 4508 c6 -18 28 -21 28 -4 0 9 -7 16 -16 16 -9 0 -14 -5 -12
-12z"/>
<path d="M5030 4381 c0 -11 5 -23 10 -26 6 -4 10 5 10 19 0 14 -4 26 -10 26
-5 0 -10 -9 -10 -19z"/>
<path d="M5110 4376 c0 -9 7 -16 16 -16 9 0 14 5 12 12 -6 18 -28 21 -28 4z"/>
<path d="M5012 4198 c6 -18 28 -21 28 -4 0 9 -7 16 -16 16 -9 0 -14 -5 -12
-12z"/>
<path d="M5090 4165 c0 -8 7 -15 15 -15 8 0 15 7 15 15 0 8 -7 15 -15 15 -8 0
-15 -7 -15 -15z"/>
<path d="M5010 4155 c0 -8 7 -15 15 -15 8 0 15 7 15 15 0 8 -7 15 -15 15 -8 0
-15 -7 -15 -15z"/>
<path d="M5096 4113 c-11 -11 -6 -23 9 -23 8 0 15 4 15 9 0 13 -16 22 -24 14z"/>
<path d="M4940 4065 c0 -14 5 -25 10 -25 6 0 10 11 10 25 0 14 -4 25 -10 25
-5 0 -10 -11 -10 -25z"/>
<path d="M5080 4045 c0 -8 5 -15 10 -15 6 0 10 7 10 15 0 8 -4 15 -10 15 -5 0
-10 -7 -10 -15z"/>
<path d="M5080 3696 c0 -9 7 -16 16 -16 9 0 14 5 12 12 -6 18 -28 21 -28 4z"/>
<path d="M5070 3525 c0 -8 5 -15 10 -15 6 0 10 7 10 15 0 8 -4 15 -10 15 -5 0
-10 -7 -10 -15z"/>
<path d="M5062 3418 c6 -18 28 -21 28 -4 0 9 -7 16 -16 16 -9 0 -14 -5 -12
-12z"/>
<path d="M5060 3316 c0 -9 7 -16 16 -16 9 0 14 5 12 12 -6 18 -28 21 -28 4z"/>
<path d="M4950 3205 c0 -8 7 -15 15 -15 8 0 15 7 15 15 0 8 -7 15 -15 15 -8 0
-15 -7 -15 -15z"/>
<path d="M4980 2935 c0 -8 5 -15 10 -15 6 0 10 7 10 15 0 8 -4 15 -10 15 -5 0
-10 -7 -10 -15z"/>
<path d="M4163 6114 c-3 -8 3 -27 14 -42 11 -15 22 -32 26 -38 3 -6 -88 5
-221 28 -125 21 -233 38 -240 38 -17 0 -27 -29 -15 -41 5 -5 104 -25 219 -44
115 -20 220 -38 233 -41 l25 -5 -32 -25 c-34 -27 -41 -51 -17 -60 15 -6 145
84 145 100 0 5 -23 39 -51 77 -51 69 -74 83 -86 53z"/>
<path d="M1410 5390 c-14 -4 -66 -8 -117 -9 -245 -3 -436 -156 -484 -390 -6
-31 -24 -81 -39 -111 -46 -91 -60 -153 -60 -273 0 -107 1 -110 28 -135 l28
-27 -12 -225 c-11 -217 -13 -227 -38 -264 -21 -31 -26 -50 -26 -100 0 -34 -14
-723 -30 -1532 -33 -1618 -34 -1564 26 -1674 42 -76 121 -158 213 -219 46 -31
102 -69 125 -84 50 -34 93 -47 305 -92 183 -39 298 -45 394 -20 209 54 309
204 323 485 6 137 45 2090 44 2240 0 94 26 1232 29 1236 1 1 7 2 14 1 31 -1
47 4 47 14 0 7 -11 8 -30 4 l-31 -7 2 284 c1 227 -2 297 -14 354 -16 70 -45
154 -56 164 -4 3 -15 22 -26 43 -31 60 -120 153 -186 193 -50 31 -59 41 -59
65 0 16 -2 29 -3 29 -2 0 -71 14 -152 30 -155 31 -174 33 -215 20z m199 -36
c63 -13 116 -26 118 -28 2 -2 -9 -6 -24 -9 -15 -3 -89 7 -163 22 -124 25 -133
28 -105 38 17 6 37 9 45 6 8 -3 66 -16 129 -29z m-319 6 c-8 -5 -37 -9 -65 -9
-40 1 -45 3 -25 9 38 12 109 12 90 0z m220 -36 c112 -21 140 -29 124 -37 -15
-6 -64 0 -168 22 -80 17 -150 31 -154 32 -4 0 2 4 13 8 11 5 25 7 30 5 6 -1
75 -15 155 -30z m-269 -6 c-7 -20 -15 -23 -48 -20 -85 7 -197 -41 -270 -116
l-26 -27 22 32 c55 82 182 153 272 153 56 0 58 -1 50 -22z m194 -23 c158 -34
155 -33 148 -51 -4 -11 -14 -14 -32 -10 -14 3 -68 14 -120 26 -52 11 -109 20
-127 20 -35 0 -49 12 -40 36 3 9 14 13 28 9 13 -2 77 -16 143 -30z m335 5 c0
-5 -7 -10 -15 -10 -8 0 -15 5 -15 10 0 6 7 10 15 10 8 0 15 -4 15 -10z m-610
-24 c-65 -16 -117 -43 -185 -95 -61 -46 -58 -32 4 24 56 50 139 84 201 83 16
0 9 -4 -20 -12z m652 -39 c75 -44 160 -130 193 -194 11 -21 25 -42 32 -46 7
-4 13 -17 13 -27 0 -10 4 -21 9 -24 5 -3 11 -16 14 -28 26 -103 36 -158 37
-189 0 -33 -3 -37 -39 -47 -21 -7 -41 -12 -43 -12 -3 0 -8 37 -12 82 -20 242
-152 440 -334 504 l-37 12 25 11 c35 14 60 7 142 -42z m-462 22 c25 -6 54 -13
65 -15 72 -12 172 -47 213 -73 64 -41 169 -151 221 -230 22 -35 41 -68 41 -73
0 -4 10 -29 22 -55 19 -41 22 -64 22 -156 -1 -59 -3 -109 -5 -110 -2 -2 -30
-1 -61 1 l-58 4 0 48 c0 61 -17 143 -41 197 -11 24 -19 45 -19 48 0 4 -18 32
-40 64 -74 110 -187 191 -324 235 -64 21 -204 21 -281 1 -60 -16 -180 -80
-205 -109 -23 -29 -30 -16 -9 19 43 73 176 172 279 208 27 10 134 7 180 -4z
m351 -31 c123 -61 224 -191 278 -357 28 -84 27 -91 -8 -91 -27 0 -30 4 -36 43
-17 101 -92 239 -164 304 -25 22 -126 76 -164 87 -15 5 -16 9 -7 26 14 27 26
25 101 -12z m-356 -89 c66 -18 178 -76 233 -119 53 -42 137 -147 154 -190 5
-14 16 -38 25 -55 21 -41 42 -131 43 -181 0 -31 -5 -44 -17 -49 -96 -36 -385
-54 -583 -36 -209 19 -391 66 -446 114 -59 51 5 243 118 357 68 68 187 138
273 160 46 12 155 11 200 -1z m478 -106 c20 -28 37 -55 37 -60 0 -4 -10 7 -22
24 -13 17 -43 55 -68 85 -35 41 -38 47 -14 28 17 -14 47 -48 67 -77z m182
-297 c10 -52 3 -71 -28 -74 -23 -3 -27 0 -27 21 0 14 -3 39 -6 56 -6 29 -5 31
24 31 27 0 32 -4 37 -34z m101 -178 c-3 -62 -11 -408 -17 -768 -5 -360 -12
-665 -15 -676 -3 -17 -17 -25 -70 -38 -37 -9 -69 -15 -71 -12 -2 2 1 114 7
248 6 133 15 333 20 443 5 110 13 259 19 330 6 72 15 207 21 300 17 266 16
260 59 272 20 6 40 11 45 12 4 0 6 -49 2 -111z m-106 60 c0 -58 -10 -78 -37
-78 -24 0 -25 2 -19 38 3 20 6 45 6 55 0 11 8 17 25 17 22 0 25 -4 25 -32z
m-1195 -45 c187 -80 626 -106 948 -57 l37 6 0 -65 0 -64 -37 -7 c-21 -3 -100
-11 -175 -17 -206 -17 -525 12 -693 63 -141 43 -165 65 -165 150 0 38 1 40 18
27 9 -8 40 -25 67 -36z m1121 -46 c0 -1 -10 -159 -22 -352 -50 -771 -67 -1465
-62 -2506 l5 -897 -55 -6 c-30 -4 -57 -5 -59 -3 -11 12 -14 1533 -4 1952 15
638 76 1805 95 1818 9 6 98 0 102 -6z m60 -54 c-14 -134 -42 -650 -57 -1077
-11 -305 -15 -342 -31 -358 -23 -23 -23 -53 0 -70 18 -12 18 -28 10 -333 -10
-323 -3 -1615 9 -1777 l6 -88 -26 0 c-25 0 -25 1 -34 117 -13 186 -9 1974 5
2208 7 110 17 310 22 445 5 135 14 317 20 405 5 88 14 241 20 340 13 232 16
245 41 245 19 0 21 -4 15 -57z m-955 -100 c85 -15 157 -18 394 -18 l290 0 -3
-270 c-3 -175 -7 -272 -14 -276 -20 -13 -123 -29 -248 -38 -241 -20 -524 21
-636 90 l-34 21 0 172 c0 95 3 220 6 277 l7 105 67 -22 c37 -12 114 -31 171
-41z m726 -180 c-4 -91 -7 -215 -7 -275 0 -65 -4 -108 -10 -108 -6 0 -10 86
-10 238 0 244 5 312 23 312 7 0 8 -55 4 -167z m-1003 -262 c-4 -19 0 -38 12
-57 l19 -27 -28 18 c-32 20 -45 59 -27 80 20 24 30 18 24 -14z m48 -126 c32
-14 108 -36 170 -47 186 -35 602 -30 757 9 l24 6 -7 -169 c-4 -93 -12 -266
-18 -384 -6 -122 -11 -704 -13 -1340 l-2 -1124 -29 -9 c-56 -16 -250 -36 -362
-37 -294 -1 -624 68 -662 139 -7 15 -2 431 20 1501 16 814 30 1488 30 1497 0
15 1 15 18 0 10 -9 43 -28 74 -42z m1268 -759 c0 -15 -144 -61 -161 -51 -19
12 8 29 74 47 79 21 87 21 87 4z m0 -178 c0 -73 -9 -549 -20 -1058 -11 -509
-20 -968 -20 -1021 l0 -97 -42 -10 c-23 -6 -44 -9 -47 -7 -22 22 -36 1834 -17
2147 l8 138 62 19 c33 11 64 20 69 20 4 1 7 -59 7 -131z m-1232 -2119 c109
-28 313 -49 477 -49 133 0 347 20 389 36 17 7 18 3 14 -52 -8 -114 -89 -234
-193 -286 -147 -74 -412 -58 -590 35 -126 66 -253 228 -271 344 l-6 41 51 -24
c28 -14 86 -34 129 -45z m1019 -87 c-4 -78 -10 -110 -31 -154 -32 -68 -128
-161 -201 -194 -88 -41 -138 -45 -245 -23 -156 33 -183 39 -186 42 -1 1 47 3
108 4 111 2 172 15 252 55 97 49 166 159 175 282 l6 71 35 6 c19 4 48 7 64 8
l29 1 -6 -98z m61 46 c-3 -46 -6 -53 -25 -56 -22 -3 -23 0 -23 52 0 53 1 56
26 56 24 0 25 -2 22 -52z m108 -85 c-17 -118 -53 -191 -136 -274 -69 -68 -122
-99 -64 -36 17 17 37 43 46 57 24 40 56 149 63 217 7 61 7 62 43 71 21 6 41
10 46 11 4 1 5 -20 2 -46z m-100 -5 c-3 -13 -6 -35 -6 -50 0 -25 -4 -28 -31
-28 -31 0 -31 1 -25 38 3 20 6 43 6 50 0 7 13 12 31 12 28 0 31 -3 25 -22z
m-22 -120 c-19 -91 -103 -196 -189 -238 -41 -20 -64 -24 -128 -23 -43 0 -83 5
-88 10 -5 5 5 7 26 5 55 -7 167 25 209 60 46 38 88 101 106 158 18 61 18 60
46 60 24 0 25 -3 18 -32z m-135 -119 c-44 -63 -175 -129 -227 -116 -12 4 -11
5 6 6 39 2 145 57 192 100 25 22 46 41 48 41 2 0 -7 -14 -19 -31z m-639 -51
c10 -6 7 -7 -10 -2 -14 3 -32 11 -40 16 -10 6 -7 7 10 2 14 -3 32 -11 40 -16z
m87 -24 c-3 -3 -12 -4 -19 -1 -8 3 -5 6 6 6 11 1 17 -2 13 -5z m50 -10 c-3 -3
-12 -4 -19 -1 -8 3 -5 6 6 6 11 1 17 -2 13 -5z m89 -22 c-10 -2 -22 0 -28 6
-6 6 0 7 19 4 21 -5 23 -7 9 -10z m123 -18 c11 -10 -8 -9 -54 3 l-50 13 50 -6
c28 -3 52 -8 54 -10z"/>
<path d="M4288 4898 c-16 -5 -28 -14 -28 -19 0 -11 0 -11 39 2 17 6 31 15 31
20 0 11 -7 10 -42 -3z"/>
<path d="M4161 4859 c-13 -5 -21 -12 -18 -15 8 -9 67 6 67 17 0 11 -18 11 -49
-2z"/>
<path d="M4041 4819 c-13 -5 -21 -12 -18 -15 8 -9 67 6 67 17 0 11 -18 11 -49
-2z"/>
<path d="M3921 4779 c-13 -5 -21 -12 -18 -15 8 -9 67 6 67 17 0 11 -18 11 -49
-2z"/>
<path d="M3798 4743 c-10 -2 -18 -9 -18 -15 0 -12 49 -2 65 13 9 9 -15 11 -47
2z"/>
<path d="M3687 4708 c-15 -5 -25 -14 -22 -18 7 -11 65 8 65 21 0 11 -7 10 -43
-3z"/>
<path d="M3567 4668 c-15 -5 -25 -14 -22 -18 7 -11 65 8 65 21 0 11 -7 10 -43
-3z"/>
<path d="M3445 4625 c-26 -11 -27 -13 -8 -14 27 -1 53 9 53 20 0 12 -9 11 -45
-6z"/>
<path d="M3333 4593 c-13 -2 -23 -9 -23 -15 0 -6 10 -8 23 -4 12 3 25 6 30 6
4 0 7 5 7 10 0 6 -3 9 -7 9 -5 -1 -18 -4 -30 -6z"/>
<path d="M3203 4553 c-23 -9 -14 -25 10 -18 31 10 45 25 22 24 -11 0 -26 -3
-32 -6z"/>
<path d="M3098 4518 c-33 -12 -38 -32 -5 -22 34 10 50 21 41 26 -5 3 -21 1
-36 -4z"/>
<path d="M2978 4478 c-33 -12 -38 -32 -5 -22 34 10 50 21 41 26 -5 3 -21 1
-36 -4z"/>
<path d="M2851 4439 c-13 -5 -21 -12 -18 -15 8 -9 67 6 67 17 0 11 -18 11 -49
-2z"/>
<path d="M2728 4403 c-10 -2 -18 -9 -18 -15 0 -6 10 -8 23 -4 12 3 25 6 30 6
4 0 7 5 7 10 0 10 -12 11 -42 3z"/>
<path d="M2608 4363 c-10 -2 -18 -9 -18 -15 0 -12 49 -2 65 13 9 9 -15 11 -47
2z"/>
<path d="M2488 4323 c-10 -2 -18 -9 -18 -15 0 -12 49 -2 65 13 9 9 -15 11 -47
2z"/>
<path d="M2378 4288 c-33 -12 -38 -32 -5 -22 34 10 50 21 41 26 -5 3 -21 1
-36 -4z"/>
<path d="M2261 4251 c-14 -4 -26 -12 -28 -18 -3 -9 5 -9 31 -1 20 6 36 15 36
20 0 9 -5 9 -39 -1z"/>
<path d="M2876 4195 c-74 -19 -131 -51 -145 -82 -17 -37 -48 -1684 -33 -1717
6 -14 33 -36 59 -49 83 -42 183 -59 375 -65 192 -5 306 6 393 39 89 33 89 33
96 257 4 109 8 285 8 392 1 107 4 232 8 278 l6 82 51 1 c67 2 108 11 113 26 3
9 -4 10 -29 2 -18 -5 -57 -9 -87 -9 l-53 0 7 370 c7 354 7 372 -11 391 -24 27
-64 47 -139 72 -52 17 -94 20 -310 23 -195 3 -263 0 -309 -11z m400 -6 c69
-18 58 -31 -38 -45 -51 -7 -178 12 -178 27 0 25 140 37 216 18z m-254 -25 c-2
-14 -11 -28 -18 -31 -17 -6 -18 -37 -1 -50 24 -19 107 -33 199 -33 143 0 212
27 174 68 -9 10 -16 28 -16 39 0 12 -6 24 -12 27 -28 13 82 -7 150 -27 73 -21
116 -49 109 -70 -5 -17 -69 -47 -140 -65 -80 -20 -406 -23 -487 -4 -153 36
-210 61 -210 93 0 34 114 76 211 78 45 1 46 0 41 -25z m174 -29 c77 0 116 4
127 13 10 9 17 10 22 2 4 -6 -10 -17 -32 -26 -66 -28 -298 -6 -278 26 4 7 14
6 28 -2 14 -8 64 -13 133 -13z m-170 -25 c6 -6 49 -16 96 -22 83 -11 178 -4
232 18 14 5 17 3 14 -7 -9 -26 -87 -41 -193 -36 -99 4 -175 24 -175 46 0 14
13 14 26 1z m-179 -73 c104 -34 171 -41 368 -41 209 -1 286 9 357 45 20 10 41
26 46 35 6 11 11 13 16 5 12 -19 -38 -58 -95 -74 -98 -29 -227 -40 -384 -34
-144 6 -299 29 -319 48 -6 5 -16 9 -24 9 -22 0 -72 40 -72 57 0 11 7 9 30 -10
16 -14 51 -32 77 -40z m376 56 c-13 -2 -33 -2 -45 0 -13 2 -3 4 22 4 25 0 35
-2 23 -4z m-318 -108 c105 -23 400 -31 520 -16 50 7 115 21 145 31 30 10 56
17 59 15 2 -2 -4 -356 -13 -787 -9 -431 -16 -793 -16 -805 0 -29 -37 -63 -70
-63 -14 0 -30 -4 -35 -9 -34 -31 -331 -51 -480 -32 -119 15 -249 51 -282 77
l-27 21 12 674 c7 371 15 737 18 815 l7 141 41 -22 c22 -13 77 -31 121 -40z
m333 -1692 c-27 -2 -69 -2 -95 0 -27 2 -5 3 47 3 52 0 74 -1 48 -3z"/>
<path d="M2870 3782 c-1 -15 -3 -55 -6 -88 -5 -58 -4 -62 18 -68 43 -11 48 -8
48 34 0 29 4 40 15 40 11 0 15 12 15 45 0 48 -1 49 -57 59 -31 5 -33 3 -33
-22z m27 -34 c-3 -7 -5 -2 -5 12 0 14 2 19 5 13 2 -7 2 -19 0 -25z m43 1 c0
-11 -4 -17 -10 -14 -5 3 -10 13 -10 21 0 8 5 14 10 14 6 0 10 -9 10 -21z"/>
<path d="M2890 3601 c-14 -4 -26 -15 -28 -24 -3 -15 1 -17 22 -11 16 4 26 2
26 -5 0 -16 17 -13 24 4 6 16 -2 46 -13 44 -3 -1 -17 -4 -31 -8z"/>
<path d="M2888 3533 c-20 -3 -28 -10 -28 -24 0 -10 5 -19 10 -19 6 0 10 4 10
10 0 5 7 7 15 4 25 -10 17 -34 -10 -34 -22 0 -25 -4 -25 -34 0 -24 5 -36 18
-39 16 -4 16 -5 0 -6 -21 -1 -24 -21 -4 -21 8 0 18 -9 21 -20 9 -28 33 -25 33
5 0 14 -5 25 -10 25 -6 0 -5 7 2 15 7 8 10 27 7 42 -3 15 -1 37 4 50 8 23 3
54 -10 52 -3 -1 -18 -4 -33 -6z m-1 -105 c-3 -8 -6 -5 -6 6 -1 11 2 17 5 13 3
-3 4 -12 1 -19z"/>
<path d="M2831 3315 c6 -27 77 -81 90 -68 7 7 5 15 -6 27 -15 14 -15 17 -1 22
28 11 17 24 -16 22 -18 -1 -41 2 -52 7 -14 6 -17 4 -15 -10z"/>
<path d="M2850 3225 c0 -14 5 -25 10 -25 6 0 10 11 10 25 0 14 -4 25 -10 25
-5 0 -10 -11 -10 -25z"/>
<path d="M2851 3131 c1 -52 4 -61 20 -61 25 0 24 -30 -1 -37 -11 -3 -20 -12
-20 -20 0 -10 7 -14 20 -10 10 3 24 -1 31 -9 9 -11 6 -14 -19 -14 -23 0 -31
-4 -30 -17 1 -10 -2 -57 -7 -104 -5 -60 -4 -89 4 -93 7 -5 11 1 11 15 0 21 1
21 21 -5 30 -38 56 -34 61 8 5 43 0 56 -19 56 -11 0 -13 -8 -8 -32 l6 -33 -26
40 c-30 49 -34 77 -7 52 33 -30 52 -22 52 23 0 29 -4 40 -15 40 -12 0 -14 -7
-9 -27 l6 -28 -21 30 c-28 41 -27 45 14 38 28 -4 35 -2 35 10 0 9 -7 20 -16
25 -15 8 -15 10 0 15 11 4 16 19 16 46 0 37 -2 41 -33 46 -21 4 -33 13 -34 23
-1 10 -2 22 -3 27 -7 36 11 46 36 20 10 -9 12 -23 8 -41 -5 -20 -3 -25 7 -22
9 3 14 20 14 49 l0 44 -48 3 -47 3 1 -60z m79 -91 c0 -11 -4 -20 -10 -20 -5 0
-10 9 -10 20 0 11 5 20 10 20 6 0 10 -9 10 -20z"/>
<path d="M2870 2731 c0 -10 -7 -21 -15 -25 -16 -6 -21 -71 -7 -80 5 -3 28 -8
51 -12 l42 -7 -3 43 c-2 25 -9 45 -17 48 -10 3 -12 -3 -6 -27 4 -20 3 -31 -4
-31 -6 0 -11 7 -11 15 0 8 -4 15 -10 15 -5 0 -10 -8 -10 -17 0 -12 -3 -14 -11
-6 -14 14 -1 63 17 63 8 0 14 9 14 20 0 11 -7 20 -15 20 -8 0 -15 -9 -15 -19z"/>
<path d="M2873 2588 c-20 -7 -33 -18 -33 -28 0 -16 65 -60 89 -60 20 0 11 26
-14 40 -27 14 -24 30 6 30 10 0 19 7 19 15 0 17 -20 18 -67 3z"/>
<path d="M4248 3483 c-10 -2 -18 -9 -18 -15 0 -5 7 -7 16 -4 9 3 22 6 30 6 8
0 14 5 14 10 0 10 -12 11 -42 3z"/>
<path d="M4123 3453 c-13 -2 -23 -9 -23 -15 0 -6 10 -8 23 -4 12 3 28 6 35 6
6 0 12 5 12 10 0 10 -8 11 -47 3z"/>
<path d="M4015 3423 c-26 -6 -44 -23 -24 -23 26 0 59 12 59 21 0 9 -3 10 -35
2z"/>
<path d="M3895 3393 c-26 -6 -44 -23 -24 -23 26 0 59 12 59 21 0 9 -3 10 -35
2z"/>
</g>
</svg>
