<svg version="1.0" xmlns="http://www.w3.org/2000/svg"
 width="500.000000pt" height="500.000000pt" viewBox="0 0 500.000000 500.000000"
 preserveAspectRatio="xMidYMid meet">
<g transform="translate(0.000000,500.000000) scale(0.100000,-0.100000)"
fill="#000000" stroke="none">
<path d="M2205 4984 c-11 -3 -29 -9 -40 -14 -11 -4 -36 -14 -55 -21 -157 -56
-289 -209 -329 -381 -15 -63 -16 -3987 -1 -4104 20 -163 129 -317 274 -388 40
-20 79 -36 87 -36 8 0 20 -5 27 -12 16 -16 514 -24 592 -10 86 16 95 19 167
53 144 68 262 222 283 369 12 79 14 4161 2 4169 -4 3 -23 38 -41 76 -54 113
-171 223 -276 259 -27 10 -59 23 -70 29 -20 12 -577 21 -620 11z m731 -77
c108 -54 218 -185 239 -284 12 -59 -19 -38 -50 34 -61 138 -211 253 -353 271
-41 5 -58 12 -60 23 -5 27 139 -1 224 -44z m-656 38 c0 -11 -11 -15 -40 -15
-23 0 -77 -14 -122 -31 -69 -27 -92 -42 -150 -100 -65 -65 -97 -118 -123 -198
-5 -19 -16 -36 -24 -39 -23 -8 -6 63 31 138 74 146 238 254 391 259 27 1 37
-3 37 -14z m422 -26 c12 -6 49 -13 84 -14 97 -3 216 -76 280 -170 34 -51 48
-79 35 -71 -18 12 -13 -5 19 -55 27 -42 31 -58 37 -148 l6 -101 -24 0 c-36 0
-46 11 -53 61 -15 104 -81 221 -163 288 -57 47 -182 109 -254 126 -79 18 -253
19 -334 1 -129 -28 -278 -122 -348 -219 -35 -48 -72 -137 -82 -199 -8 -47 -18
-58 -54 -58 l-24 0 6 91 c5 67 13 101 28 125 11 19 18 38 14 44 -11 18 32 95
88 156 63 68 155 120 227 129 l45 5 -42 -14 c-23 -7 -63 -26 -89 -42 -58 -36
-191 -159 -210 -196 -23 -44 -16 -44 16 1 55 75 114 127 225 197 17 10 64 31
105 45 70 25 87 27 258 28 119 1 191 -3 204 -10z m-54 -90 c94 -22 211 -81
274 -138 86 -77 141 -180 150 -278 l3 -38 -579 -3 -579 -2 6 55 c8 81 60 179
131 247 64 63 192 133 280 154 65 16 252 17 314 3z m-745 -1404 c3 -509 3
-1341 0 -1851 l-6 -925 -31 3 -31 3 -3 1848 -2 1847 33 0 34 0 6 -925z m1175
863 l-3 -63 -230 5 c-126 3 -284 5 -350 5 -66 0 -223 -2 -350 -5 l-230 -5 -3
63 -3 62 586 0 586 0 -3 -62z m80 -1785 l-3 -1848 -32 -3 -33 -3 0 1850 0
1851 35 0 35 0 -2 -1847z m-1338 -3 c0 -1629 -2 -1840 -15 -1840 -13 0 -15
211 -15 1840 0 1629 2 1840 15 1840 13 0 15 -211 15 -1840z m1380 0 c0 -1629
-2 -1840 -15 -1840 -13 0 -15 211 -15 1840 0 1629 2 1840 15 1840 13 0 15
-211 15 -1840z m-290 1702 l105 -7 0 -275 0 -275 -257 -9 c-143 -4 -372 -4
-520 0 l-263 9 -3 273 c-2 223 0 273 11 278 44 17 685 21 927 6z m-952 -279
c-3 -239 -5 -278 -18 -278 -13 0 -15 37 -18 265 -1 146 0 270 3 277 2 7 11 13
20 13 13 0 15 -33 13 -277z m1112 -3 c0 -242 -2 -280 -15 -280 -13 0 -15 38
-15 280 0 242 2 280 15 280 13 0 15 -38 15 -280z m-1 -355 c0 -27 3 -695 7
-1482 l6 -1433 -588 0 -587 0 6 272 c4 149 7 816 7 1482 l0 1211 575 0 575 0
-1 -50z m-1163 -2985 c24 -115 69 -197 146 -267 121 -111 258 -162 440 -163
126 0 223 21 317 70 94 49 141 87 192 157 45 61 66 111 83 198 12 58 13 60 46
63 l33 3 -6 -98 c-5 -90 -9 -104 -41 -158 -40 -67 -128 -161 -190 -201 -23
-15 -52 -35 -66 -44 -14 -9 -59 -27 -100 -40 -64 -21 -100 -25 -244 -28 -160
-4 -172 -2 -255 23 -47 15 -113 43 -146 63 -84 50 -190 155 -236 234 -35 60
-40 76 -46 158 l-6 91 34 -3 c32 -3 34 -6 45 -58z m1166 13 c-16 -196 -191
-368 -432 -422 -90 -21 -288 -10 -355 19 -161 70 -232 121 -292 210 -41 61
-73 149 -73 199 l0 36 577 -2 578 -3 -3 -37z m-1226 -194 c33 -104 99 -193
185 -249 63 -41 160 -77 218 -82 48 -4 54 -28 7 -28 -138 0 -287 86 -379 219
-51 75 -86 189 -55 179 7 -3 18 -20 24 -39z m1329 -21 c-20 -93 -131 -226
-234 -282 -94 -50 -231 -75 -231 -41 0 11 11 15 40 15 22 0 68 11 102 24 125
47 208 122 269 247 36 74 66 94 54 37z"/>
</g>
</svg>
