<?xml version="1.0" encoding="utf-8"?>
<!-- Generator: Adobe Illustrator 20.0.0, SVG Export Plug-In . SVG Version: 6.00 Build 0)  -->
<svg version="1.1" id="Layer_1" xmlns="http://www.w3.org/2000/svg" xmlns:xlink="http://www.w3.org/1999/xlink" x="0px" y="0px"
	 viewBox="0 0 1099.7 3266.9" style="enable-background:new 0 0 1099.7 3266.9;" xml:space="preserve">
<style type="text/css">
	.st0{fill:#1A1A18;}
	.st1{fill-rule:evenodd;clip-rule:evenodd;fill:#0078CC;}
</style>
<g>
	<path class="st0" d="M1030.9,123.3C997.7,46.9,945.4,5.4,875.4,0.1c-2.8-0.2-5.4-0.2-8.7,0.1C797,5.9,745,47.5,712,123.9
		c-32.6,75.4-47.4,187-44.1,331.8c0.6,24.3,1.8,27.8,8.9,47.1l1.6,4.5c39.9,109.3,61.3,233.3,63.9,368.3c0.3,14.6,1,18.8,4.5,33.2
		c11.5,47.6,13.7,91.9,6.4,131.6c-7.2,39.6-23.9,75.8-49.7,107.7l0.8,0.7c-1.2,1.6-1.2,4.5-1.1,8.3c0,3.7,0.2,9.4,0.5,16.7l0.1,2.2
		l1.8,1.2c12.1,8.2,32.1,17.4,59.2,27.3v64.7l3.3,0.7c25.7,5.7,51,9.4,75.7,11.1v1123.4l21.4,44.2l27.8-0.3l21.2-43.9v-1124
		c20.8-1.9,41.2-5.4,61-10.4l3.2-0.8v-64.5c27.1-9.9,47.1-19.1,59.2-27.3l1.8-1.2l0.1-2.2c0.3-7.4,0.5-13,0.5-16.7
		c0-3.9,0.1-6.7-1.1-8.3l0.8-0.7c-25.8-31.9-42.5-68.1-49.7-107.7c-7.2-39.7-5-84,6.4-131.6c3.5-14.5,4.2-18.6,4.5-33.2
		c2.5-135,24-258.9,63.9-368.3l1.6-4.5c7.1-19.3,8.3-22.8,8.9-47.1C1078.6,310.5,1063.6,198.7,1030.9,123.3z M905.7,2402.3
		l-18.1,37.4l-3.7,0l4-33.2l11.6-4.2l-1.4-4l-14.1,5.1l-4.4,36.4l-3.4,0l-4.4-36.3l-14.1-5.1l-1.4,4l11.6,4.2l4,33.3l-1.5,0
		l-18.2-37.6V1281.4c7.7,0.4,15.3,0.6,22.8,0.6c10.3,0,20.5-0.4,30.6-1.1V2402.3z M969.9,1262.3c-19.9,4.9-40.3,8.1-61.2,9.8
		l-29,0.8l-30.5-0.2c-24.8-1.4-50.1-4.9-75.9-10.5v-56.5h196.7V1262.3z M986.9,1064.9c9.1,32.1,24.5,61.8,46.2,88.5l2-1.6l4.3,1.2
		c-0.3,1.2-1.9,2.8-4.2,2.7c-2.3-0.2-3.6-2-3.8-3.2c0.1,0.7,0.2,3.8-0.3,18.9c-12,7.7-31.4,16.5-57.7,25.9H769.7
		c-26.2-9.5-45.6-18.2-57.7-25.9c-0.6-15-0.4-18.2-0.3-18.9c-0.2,1.2-1.5,3.1-3.8,3.2c-2.3,0.1-3.8-1.5-4.2-2.7l4.3-1.2l2,1.6
		c26.7-33,44-70.5,51.5-111.5c7.4-40.9,5.2-86.3-6.5-135.1c-3.4-13.9-4-17.5-4.2-31.4c-2.5-136-24.2-260.8-64.4-371l-1.6-4.5
		c-7-19-7.9-21.5-8.4-44.3c-3.3-143.5,11.3-253.9,43.4-328.2c15.9-36.8,36.4-65.4,60.9-85c24.4-19.6,53.6-30.8,86.7-33.5
		c2.9-0.2,5-0.3,7.4-0.1c33.3,2.5,62.6,13.7,87.1,33.1c24.7,19.6,45.3,48.1,61.2,84.9c11.1,25.7,20.2,55.7,27.1,89.9
		c-5.5-18.5-11.9-35.2-19.2-49.9c-27.1-54.2-67.8-83.8-120.8-87.8c-2.2-0.2-4.3-0.1-6.9,0.1c-56.7,4.6-99.1,38.6-126,100.9
		c-26.7,61.8-38.9,153.4-36.2,272.2c0.5,19.8,1.4,22.2,7.2,38.3l1.3,3.7c32.8,90.1,50.5,192.1,52.6,303.3
		c0.2,11.8,0.8,15.2,3.6,26.7c-6.6,100.1,14.9,164.7,34.1,201.4c22.7,43.2,55.3,71.9,87.3,76.8c3.1,0.5,6.2,0.7,9.2,0.7
		c11.2,0,21.4-3.3,30.1-9.6C975.3,1086.8,982.3,1077.1,986.9,1064.9z M1066.8,455.5c-0.3,14.8-0.8,21.1-3,28.8
		c-0.5,1.4-1.1,2.9-1.7,4.6l-1.4,3.7c-2.6,7.1-5.1,14.3-7.5,21.5c-37.9,107.8-58.4,229.3-60.9,361.3c-0.3,13.9-0.9,17.5-4.2,31.4
		c-11.8,48.8-14,94.2-6.5,135.1c1,5.3,2.1,10.5,3.4,15.6c-8.7,29.6-29.8,44.7-57.1,40.5c-56-8.5-129.5-99.1-117.8-274l0-0.3
		l-0.1-0.3c-2.8-11.6-3.3-14.6-3.5-26.1c-2.1-111.7-19.9-214.2-52.9-304.7l-1.3-3.7c-5.8-15.8-6.5-17.9-7-36.9
		c-2.7-118.2,9.4-209.2,35.8-270.4c13.2-30.4,30.1-54.1,50.5-70.5c20.3-16.3,44.5-25.6,72-27.9c1.4-0.1,2.6-0.2,3.7-0.2
		c0.9,0,1.7,0,2.6,0.1c25.7,2,48.6,10.1,68,24.2c19.5,14.2,36.1,34.8,49.3,61.2c15.5,30.9,26.7,70.6,33.7,118.6
		C1066.2,336.9,1068.2,393,1066.8,455.5z"/>
	<path class="st0" d="M956.3,206.3c-11.3-7-24.4-9.2-36.9-6.2c-27.5,6.6-44.2,36.5-37.4,66.6c3.5,15.3,12.7,28.5,25.4,36.3
		c8,5,16.9,7.5,25.9,7.5c3.7,0,7.4-0.4,11.1-1.3c27.5-6.6,44.2-36.5,37.4-66.6C978.2,227.4,968.9,214.2,956.3,206.3z M943.3,305.1
		c-11.4,2.8-23.4,0.7-33.7-5.7c-11.7-7.2-20.2-19.5-23.5-33.7c-6.4-27.8,9-55.4,34.2-61.5c3.3-0.8,6.7-1.2,10.1-1.2
		c8.2,0,16.3,2.3,23.6,6.9c11.7,7.2,20.2,19.5,23.5,33.7C983.9,271.5,968.5,299,943.3,305.1z"/>
	<path class="st0" d="M961.9,195.1c-13.9-8.6-30.1-11.3-45.5-7.6c-33.8,8.2-54.5,45-46,82.1c4.3,18.8,15.7,35.2,31.3,44.8
		c1,0.6,2,1.2,3,1.8c1,0.6,2,1.1,3.1,1.6c8.2,3.9,17,5.9,25.8,5.9c2.3,0,4.6-0.1,6.8-0.4c2.3-0.3,4.5-0.7,6.8-1.2
		c33.8-8.2,54.5-45,46-82.1C988.9,221.1,977.5,204.7,961.9,195.1z M946.2,317.8c-14.3,3.5-29.3,0.9-42.2-7.1
		c-1.8-1.1-3.6-2.4-5.3-3.7c-11.9-9.3-20.5-22.9-24.1-38.5c-7.9-34.8,11.3-69.3,42.9-77c4.2-1,8.4-1.5,12.6-1.5
		c10.2,0,20.4,2.9,29.6,8.6c14.6,9.1,25.3,24.4,29.4,42.1C997,275.7,977.8,310.2,946.2,317.8z"/>
</g>
<g>
	<path class="st0" d="M373.1,2616.5C373.1,2616.5,373.1,2616.5,373.1,2616.5c-5.1,0-9.8-2-13.3-5.6c-3.5-3.6-5.4-8.5-5.3-13.6
		l1.4-63.4c0.2-9.9,8.5-17.9,18.6-17.9c0,0,0,0,0,0l0,0c4.9,0,9.5,1.9,13,5.4c3.4,3.4,5.2,7.9,5.1,12.6l-0.5,63.4
		C392.1,2608,383.5,2616.5,373.1,2616.5z M374.5,2520.4c-7.7,0-14.2,6.1-14.3,13.7l-1.4,63.4c-0.1,4,1.4,7.7,4.1,10.5
		c2.7,2.8,6.3,4.3,10.2,4.3c0,0,0,0,0,0c8.1,0,14.7-6.6,14.8-14.8l0.5-63.4c0-3.6-1.4-7-3.9-9.6
		C381.8,2521.8,378.3,2520.4,374.5,2520.4C374.5,2520.4,374.5,2520.4,374.5,2520.4z"/>
</g>
<g>
	<path class="st0" d="M544.2,2617.8c-12.3,0-22.3-10-22.3-22.3V2507c0-12.3,10-22.3,22.3-22.3c12.3,0,22.3,10,22.3,22.3v88.4
		C566.5,2607.7,556.5,2617.8,544.2,2617.8z M544.2,2488.9c-10,0-18.1,8.1-18.1,18.1v88.4c0,10,8.1,18.1,18.1,18.1
		c10,0,18.1-8.1,18.1-18.1V2507C562.3,2497,554.2,2488.9,544.2,2488.9L544.2,2488.9z"/>
</g>
<g>
	<path class="st0" d="M715.3,2616.5c-10.4,0-18.9-8.5-19-19l-0.5-63.4c0-4.7,1.8-9.2,5.1-12.6c3.4-3.5,8.1-5.4,13-5.4l0,0
		c0,0,0,0,0,0c10,0,18.4,8,18.6,17.9l1.4,63.4c0.1,5.1-1.8,9.9-5.3,13.6C725,2614.5,720.3,2616.5,715.3,2616.5
		C715.3,2616.5,715.3,2616.5,715.3,2616.5z M713.9,2520.4c-3.8,0-7.3,1.5-10,4.2c-2.6,2.6-3.9,6-3.9,9.6l0.5,63.4
		c0.1,8.2,6.7,14.8,14.8,14.8c0,0,0,0,0,0c3.9,0,7.5-1.5,10.2-4.3c2.7-2.8,4.2-6.5,4.1-10.5l-1.4-63.4
		C728.1,2526.5,721.6,2520.4,713.9,2520.4C713.9,2520.4,713.9,2520.4,713.9,2520.4L713.9,2520.4z"/>
</g>
<g>
	<path class="st1" d="M927.8,2592.9c-9.1-8.3-25.2-13.8-43.5-13.8c-19.7,0-36.9,6.4-45.5,15.7c9.1,8.3,25.2,13.8,43.5,13.8
		C902,2608.7,919.2,2602.3,927.8,2592.9z"/>
</g>
<path class="st0" d="M935.8,2579.2c0-17.4-24-31.6-53.5-31.6c-29.5,0-53.5,14.2-53.5,31.6c0,5.7,2.6,11.1,7.1,15.7l-0.1,0.1l1.6,1.4
	c5,4.6,11.9,8.2,19.8,10.7l1,33.3l4.2-0.1l-1-32.1c3.8,0.9,7.8,1.6,12,2c0.4,0,0.8,0.1,1.2,0.1c0.5,0,1,0.1,1.5,0.1
	c0.6,0,1.2,0.1,1.8,0.1c0.4,0,0.8,0,1.2,0.1c1,0,2.1,0.1,3.1,0.1c1.1,0,2.2,0,3.3-0.1c0.3,0,0.7,0,1,0c0.8,0,1.5-0.1,2.3-0.1
	c0.4,0,0.8-0.1,1.2-0.1c0.8-0.1,1.5-0.1,2.3-0.2c0.8-0.1,1.5-0.2,2.3-0.3c0.4-0.1,0.8-0.1,1.2-0.2c0.7-0.1,1.4-0.2,2.2-0.4
	c0.1,0,0.3,0,0.4-0.1c2.1-0.4,4.2-0.9,6.3-1.4l-1,32.5l4.2,0.1l1-33.9c8.5-2.8,15.6-7,20.4-12.2l1.4-1.6l-0.1-0.1
	C934,2588.6,935.8,2584,935.8,2579.2z M898.2,2605.1c-0.1,0-0.1,0-0.2,0c-0.9,0.2-1.9,0.3-2.9,0.5c0,0,0,0-0.1,0
	c-1,0.2-2,0.3-3.1,0.4c0,0-0.1,0-0.1,0c-0.9,0.1-1.8,0.2-2.7,0.3c-0.3,0-0.5,0-0.8,0.1c-0.7,0.1-1.5,0.1-2.2,0.1c-0.3,0-0.5,0-0.8,0
	c-1,0-2,0.1-3,0.1c-0.9,0-1.9,0-2.8,0c-0.3,0-0.6,0-0.9,0c-0.6,0-1.3-0.1-1.9-0.1c-0.3,0-0.7,0-1-0.1c-0.6,0-1.2-0.1-1.8-0.1
	c-0.3,0-0.7-0.1-1-0.1c-0.6-0.1-1.2-0.1-1.9-0.2c-0.3,0-0.5-0.1-0.8-0.1c-1.8-0.2-3.5-0.6-5.2-0.9c-0.2,0-0.4-0.1-0.6-0.1
	c-0.7-0.2-1.4-0.3-2.1-0.5c-0.2,0-0.3-0.1-0.5-0.1c-0.8-0.2-1.5-0.4-2.3-0.6c0,0-0.1,0-0.1,0c-6.9-2-12.9-5-17.5-8.6
	c8.9-8.4,24.9-13.5,42.3-13.5c16.2,0,31.1,4.4,40.4,11.8C918.5,2598.8,909.1,2603,898.2,2605.1z M927.6,2590
	c-10-8.1-26-12.9-43.3-12.9c-18.7,0-35.9,5.7-45.5,14.9c-3.6-3.8-5.7-8.2-5.7-12.8c0-15.1,22.1-27.4,49.3-27.4
	c27.2,0,49.3,12.3,49.3,27.4C931.6,2583,930.1,2586.7,927.6,2590z"/>
<g>
	<path class="st0" d="M1094.9,2892.1c-0.5-3.9-1-7.9-1.4-12l-15.8-157.2c-2.8-27.4-8-59.2-33.9-90.1c-26.3-31.4-58.5-59.8-95.7-84.5
		c-35.5-23.6-75.8-43.9-119.5-60.2c-84.2-31.5-180.5-48.1-278.7-48.1c0,0,0,0,0,0c-98.1,0-194.5,16.6-278.7,48.1
		c-43.8,16.4-84,36.6-119.5,60.2c-37.2,24.7-69.4,53.1-95.7,84.5c-25.9,30.9-31.1,62.7-33.9,90.1L6.3,2880c-0.5,4.2-1,8.2-1.4,12.1
		c-3.7,31.1-6.7,55.6-3.5,94.7l8.6,181.1c0.1,2.7,0.2,5,0.3,7c0.6,15.1,0.9,16,10.9,29.3c0.9,1.2,1.9,2.5,3,4l16.8,22.6
		c1.6,2.1,3.1,4.3,4.6,6.6c7.8,11.4,16.7,24.3,32.9,25.3c82.9,5.2,211.8,4.4,325.4,3.6c51.3-0.3,99.8-0.7,140.5-0.4h0
		c3.6,0,7.3,0,10.9,0c40.7-0.2,89.1,0.1,140.4,0.4c41.5,0.3,85,0.6,127.6,0.6c74.1,0,145.3-0.9,197.9-4.2
		c16.2-1,25.1-13.9,32.9-25.3c1.6-2.3,3.1-4.5,4.6-6.6l16.8-22.6c1.1-1.5,2.1-2.8,3-4c10-13.4,10.3-14.2,10.9-29.3
		c0.1-2,0.2-4.4,0.3-7l8.6-181.1C1101.6,2947.7,1098.6,2923.2,1094.9,2892.1z M30.5,2723.7c2.8-27.3,7.6-56.5,32-85.5
		c25.8-30.8,57.4-58.6,93.9-82.9c35-23.2,74.6-43.2,117.8-59.3c83.2-31.1,178.6-47.5,275.7-47.5c97.1,0,192.4,16.4,275.7,47.5
		c43.2,16.1,82.8,36.1,117.8,59.3c36.5,24.2,68.1,52.1,93.9,82.9c24.4,29.1,29.2,58.2,32,85.5L1085,2881c0.3,2.6,0.6,5.1,0.9,7.5
		c-4-8.4-9-15.7-15.1-22.1c-22.9-24-60.8-35.4-119.2-35.8h-22.3c-3.2-11.9-25.4-20.6-53.3-20.6c-27.9,0-50.1,8.7-53.3,20.6H821
		h-20.7c-3.2-11.9-25.4-20.6-53.3-20.6c-27.9,0-50.1,8.7-53.3,20.6h-1.6h-23.7c-3.2-11.9-25.4-20.6-53.3-20.6
		c-27.9,0-50.1,8.7-53.3,20.6h-1.6h-20h-1.6c-3.2-11.9-25.4-20.6-53.3-20.6c-27.9,0-50.1,8.7-53.3,20.6h-23.7h-1.6
		c-3.2-11.9-25.4-20.6-53.3-20.6c-27.9,0-50.1,8.7-53.3,20.6h-20.7h-1.6c-3.2-11.9-25.4-20.6-53.3-20.6c-27.9,0-50.1,8.7-53.3,20.6
		h-22.3c-58.4,0.5-96.3,11.8-119.2,35.8c-6.1,6.4-11.1,13.7-15.1,22.1c0.3-2.5,0.6-5,0.9-7.6L30.5,2723.7z M269.8,2865.9
		c0,0,0-0.1,0.1-0.1c0.4-0.7,0.7-1.5,1.1-2.2c0-0.1,0.1-0.1,0.1-0.2c0.4-0.8,0.7-1.6,1-2.4l0.2-0.4l0,0c0.6-1.3,1.1-2.7,1.6-4.1
		c0-0.1,0.1-0.2,0.1-0.3c0.2-0.6,0.4-1.2,0.6-1.8c0.1-0.4,0.2-0.7,0.3-1.1c0.2-0.5,0.3-1.1,0.5-1.6c0.1-0.5,0.3-0.9,0.4-1.4
		c0.1-0.5,0.3-0.9,0.4-1.4c0.2-0.7,0.3-1.4,0.5-2.1c0.1-0.4,0.2-0.8,0.3-1.1c0.2-0.8,0.3-1.7,0.5-2.5c0.1-0.3,0.1-0.7,0.2-1
		c0.1-0.7,0.2-1.3,0.3-2c0.1-0.4,0.1-0.7,0.1-1.1c0.1-0.7,0.2-1.4,0.2-2.1c0-0.3,0.1-0.6,0.1-1c0-0.4,0.1-0.7,0.1-1.1h20.7
		c0,0.2,0,0.3,0,0.5c0,0.2,0,0.4,0,0.5c0,0.2,0,0.5,0.1,0.7c0.1,0.9,0.2,1.8,0.3,2.7c0,0.1,0,0.2,0,0.3c0.9,7.1,2.7,14,5.3,20.6l0,0
		l0.5,1.1c0.5,1.1,0.9,2.1,1.4,3.2c0,0,0,0.1,0,0.1c0.4,0.8,0.8,1.7,1.2,2.5c0.1,0.2,0.2,0.4,0.3,0.5c0.3,0.6,0.7,1.2,1,1.8H268
		C268.6,2868.2,269.2,2867.1,269.8,2865.9z M249.5,2850.3c-7.8-1.8-16.7-2.8-25.7-2.8s-17.9,1-25.7,2.8c-7.5,1.8-13.9,4.2-18.6,7.3
		c-1.1-2.7-2-5.5-2.7-8.3c0-0.1-0.1-0.3-0.1-0.4c-0.2-0.6-0.3-1.3-0.5-1.9c0-0.2-0.1-0.4-0.1-0.7c-0.3-1.3-0.6-2.7-0.8-4
		c0,0,0-0.1,0-0.1c-0.1-0.4-0.1-0.9-0.2-1.3c-0.1-0.5-0.1-0.9-0.2-1.4c-0.1-0.4-0.1-0.8-0.1-1.2c-0.1-0.5-0.1-1.1-0.2-1.6
		c0-0.4-0.1-0.7-0.1-1.1c-0.1-0.8-0.1-1.5-0.1-2.3l0-0.1c1-11.2,26.4-18.7,49.5-18.7c23,0,48.3,7.5,49.5,18.6l0,0.8l0,0l0.1,1.2h0.8
		c0,0.2,0,0.4-0.1,0.6c0,0.2,0,0.4-0.1,0.6c-0.8,7.6-2.7,15-5.4,21.8C263.9,2854.7,257.3,2852.1,249.5,2850.3z M308.5,2857.5
		c-1-2.7-1.9-5.5-2.7-8.3c0-0.2-0.1-0.3-0.1-0.5c-0.2-0.6-0.3-1.2-0.5-1.9c-0.1-0.2-0.1-0.5-0.2-0.7c-0.2-1-0.4-2-0.6-2.9
		c-0.1-0.4-0.1-0.8-0.2-1.2c-0.1-0.4-0.1-0.8-0.2-1.3c-0.1-0.5-0.1-1-0.2-1.5c0-0.4-0.1-0.8-0.1-1.2c-0.1-0.6-0.1-1.1-0.2-1.7
		c0-0.3-0.1-0.7-0.1-1c-0.1-0.8-0.1-1.5-0.1-2.3l0-0.1c1.1-11.2,26.4-18.7,49.5-18.7c23,0,48.4,7.5,49.5,18.7l0.2,1.9h0.8
		c0,0.2,0,0.4-0.1,0.7c0,0.2,0,0.4-0.1,0.6c-0.8,7.6-2.7,15-5.4,21.8c-4.8-3.2-11.4-5.8-19.2-7.6c-7.8-1.8-16.7-2.8-25.7-2.8
		s-17.9,1-25.7,2.8C319.6,2852,313.2,2854.5,308.5,2857.5z M398.9,2865.9c0,0,0-0.1,0.1-0.1c0.4-0.7,0.7-1.5,1.1-2.2
		c0-0.1,0.1-0.1,0.1-0.2c0.4-0.8,0.7-1.6,1-2.4l0.2-0.4l0,0c0.6-1.4,1.1-2.7,1.6-4.1c0-0.1,0.1-0.2,0.1-0.3c0.2-0.6,0.4-1.2,0.6-1.8
		c0.1-0.4,0.2-0.7,0.3-1.1c0.2-0.5,0.3-1.1,0.5-1.6c0.1-0.5,0.3-0.9,0.4-1.4c0.1-0.5,0.3-1,0.4-1.4c0.2-0.7,0.3-1.4,0.5-2.1
		c0.1-0.4,0.2-0.8,0.3-1.2c0.2-0.8,0.3-1.6,0.5-2.4c0.1-0.4,0.1-0.7,0.2-1.1c0.1-0.7,0.2-1.3,0.3-2c0.1-0.4,0.1-0.7,0.2-1.1
		c0.1-0.7,0.2-1.4,0.2-2.1c0-0.3,0.1-0.6,0.1-1c0-0.4,0.1-0.7,0.1-1.1h23.7c0,0.2,0,0.3,0,0.5c0,0.2,0,0.4,0,0.5
		c0,0.2,0,0.5,0.1,0.7c0.1,0.9,0.2,1.8,0.3,2.6c0,0.1,0,0.2,0,0.3c0.9,7.1,2.7,14,5.3,20.6l0,0l0.5,1.2c0.4,1.1,0.9,2.1,1.4,3.2
		c0,0,0,0.1,0.1,0.1c0.4,0.8,0.8,1.6,1.2,2.4c0.1,0.2,0.2,0.4,0.3,0.6c0.3,0.6,0.7,1.2,1,1.8l-44.4,0
		C397.7,2868.2,398.3,2867.1,398.9,2865.9z M440.5,2857.5c-1.1-2.7-2-5.5-2.7-8.3c0-0.1-0.1-0.3-0.1-0.4c-0.2-0.6-0.3-1.3-0.5-1.9
		c-0.1-0.2-0.1-0.5-0.1-0.7c-0.3-1.2-0.5-2.4-0.7-3.7c0-0.2-0.1-0.3-0.1-0.5c-0.1-0.4-0.1-0.9-0.2-1.3c-0.1-0.5-0.1-1-0.2-1.5
		c-0.1-0.4-0.1-0.8-0.1-1.2c-0.1-0.6-0.1-1.1-0.2-1.7c0-0.3-0.1-0.7-0.1-1c-0.1-0.8-0.1-1.5-0.1-2.3l0-0.1
		c1-11.2,26.4-18.7,49.5-18.7c23,0,48.3,7.5,49.5,18.7l0,0.8l0,0l0.1,1.2h0.8c0,0.2,0,0.4-0.1,0.7c0,0.2,0,0.4-0.1,0.6
		c-0.8,7.6-2.7,15-5.4,21.8c-4.8-3.2-11.4-5.8-19.2-7.6c-7.8-1.8-16.7-2.8-25.7-2.8s-17.9,1-25.7,2.8
		C451.7,2852,445.3,2854.5,440.5,2857.5z M530.9,2865.9c0,0,0-0.1,0.1-0.1c0.4-0.7,0.7-1.5,1.1-2.2c0-0.1,0.1-0.1,0.1-0.2
		c0.4-0.8,0.7-1.6,1.1-2.4l0.2-0.4l0,0c0.6-1.3,1.1-2.7,1.6-4.1c0-0.1,0.1-0.2,0.1-0.3c0.2-0.6,0.4-1.2,0.6-1.8
		c0.1-0.4,0.2-0.7,0.3-1.1c0.2-0.5,0.3-1.1,0.5-1.6c0.1-0.5,0.3-0.9,0.4-1.4c0.1-0.5,0.3-0.9,0.4-1.4c0.2-0.7,0.3-1.4,0.5-2.1
		c0.1-0.4,0.2-0.8,0.3-1.1c0.2-0.8,0.3-1.7,0.5-2.5c0.1-0.3,0.1-0.7,0.2-1c0.1-0.7,0.2-1.3,0.3-2c0.1-0.4,0.1-0.7,0.1-1.1
		c0.1-0.7,0.2-1.4,0.2-2.1c0-0.3,0.1-0.6,0.1-1c0-0.4,0.1-0.7,0.1-1.1h20.6c0,0.4,0.1,0.7,0.1,1.1c0,0.3,0.1,0.6,0.1,1
		c0.1,0.7,0.2,1.4,0.2,2.1c0,0.4,0.1,0.7,0.2,1.1c0.1,0.7,0.2,1.3,0.3,2c0.1,0.4,0.1,0.7,0.2,1.1c0.1,0.8,0.3,1.6,0.5,2.5
		c0.1,0.4,0.2,0.8,0.3,1.2c0.2,0.7,0.3,1.4,0.5,2.1c0.1,0.5,0.3,1,0.4,1.4c0.1,0.5,0.3,0.9,0.4,1.4c0.2,0.5,0.3,1.1,0.5,1.6
		c0.1,0.4,0.2,0.7,0.3,1.1c0.2,0.6,0.4,1.2,0.6,1.8c0,0.1,0.1,0.2,0.1,0.3c0.5,1.4,1,2.8,1.6,4.1l0,0l0.2,0.4c0.3,0.8,0.7,1.6,1,2.4
		c0,0.1,0.1,0.1,0.1,0.2c0.3,0.8,0.7,1.5,1.1,2.2c0,0,0,0.1,0.1,0.1c0.6,1.2,1.2,2.3,1.8,3.4h-41.6
		C529.7,2868.2,530.3,2867.1,530.9,2865.9z M569.9,2857.9c-2.7-6.8-4.6-14.1-5.4-21.8c0-0.2,0-0.4-0.1-0.6c0-0.2,0-0.4-0.1-0.6h0.8
		l0.2-1.9c1.1-11.2,26.4-18.7,49.5-18.7c23,0,48.4,7.5,49.5,18.7l0,0.1c0,0.8-0.1,1.6-0.1,2.3c0,0.3-0.1,0.6-0.1,0.9
		c-0.1,0.6-0.1,1.2-0.2,1.8c0,0.4-0.1,0.8-0.1,1.1c-0.1,0.5-0.1,1-0.2,1.5c-0.1,0.4-0.1,0.8-0.2,1.2c-0.1,0.5-0.2,0.9-0.2,1.3
		c-0.2,0.9-0.3,1.8-0.6,2.8c-0.1,0.2-0.1,0.5-0.2,0.7c-0.1,0.6-0.3,1.3-0.5,1.9c0,0.2-0.1,0.3-0.1,0.5c-0.7,2.8-1.6,5.6-2.7,8.3
		c-4.8-3-11.1-5.5-18.6-7.3c-7.8-1.8-16.7-2.8-25.7-2.8s-17.9,1-25.7,2.8C581.3,2852.1,574.7,2854.7,569.9,2857.9z M659.3,2867.5
		c0.1-0.2,0.2-0.3,0.3-0.5c0.4-0.8,0.8-1.7,1.2-2.5c0,0,0,0,0-0.1c0.5-1.1,1-2.1,1.4-3.2l0.5-1.2l0,0c2.6-6.6,4.4-13.5,5.3-20.6
		c0-0.1,0-0.2,0-0.3c0.1-0.9,0.2-1.7,0.3-2.6c0-0.2,0-0.5,0.1-0.7c0-0.2,0-0.3,0-0.5c0-0.2,0-0.3,0-0.5h23.7c0,0.4,0.1,0.7,0.1,1.1
		c0,0.3,0.1,0.6,0.1,1c0.1,0.7,0.2,1.4,0.2,2.1c0,0.4,0.1,0.7,0.2,1.1c0.1,0.7,0.2,1.3,0.3,2c0.1,0.4,0.1,0.7,0.2,1.1
		c0.1,0.8,0.3,1.6,0.5,2.4c0.1,0.4,0.2,0.8,0.3,1.2c0.2,0.7,0.3,1.4,0.5,2.1c0.1,0.5,0.3,1,0.4,1.4c0.1,0.5,0.2,0.9,0.4,1.4
		c0.2,0.5,0.3,1.1,0.5,1.6c0.1,0.4,0.2,0.7,0.3,1.1c0.2,0.6,0.4,1.2,0.6,1.8c0,0.1,0.1,0.2,0.1,0.3c0.5,1.4,1,2.8,1.6,4.1l0,0
		l0.2,0.4c0.3,0.8,0.7,1.6,1,2.4c0,0.1,0,0.1,0.1,0.2c0.3,0.8,0.7,1.5,1.1,2.2c0,0,0,0.1,0.1,0.1c0.6,1.2,1.2,2.3,1.8,3.5h-44.4
		C658.6,2868.7,659,2868.1,659.3,2867.5z M702,2857.9c-2.7-6.8-4.6-14.1-5.4-21.8c0-0.2,0-0.4-0.1-0.6c0-0.2,0-0.4-0.1-0.6h0.8
		l0.1-1.2l0,0l0-0.8c1.1-11.2,26.5-18.7,49.5-18.7c23,0,48.4,7.5,49.5,18.7l0,0.1c0,0.8-0.1,1.6-0.1,2.3c0,0.3-0.1,0.6-0.1,0.9
		c-0.1,0.6-0.1,1.2-0.2,1.8c0,0.4-0.1,0.7-0.1,1.1c-0.1,0.5-0.1,1.1-0.2,1.6c-0.1,0.4-0.1,0.8-0.2,1.2c-0.1,0.8-0.3,1.6-0.4,2.4
		c-0.1,0.6-0.2,1.1-0.3,1.7c-0.1,0.3-0.1,0.6-0.2,0.9c-0.1,0.6-0.3,1.2-0.4,1.8c0,0.2-0.1,0.4-0.2,0.6c-0.7,2.8-1.6,5.6-2.7,8.3
		c-4.8-3-11.1-5.5-18.6-7.3c-7.8-1.8-16.7-2.8-25.7-2.8s-17.9,1-25.7,2.8C713.4,2852.1,706.8,2854.7,702,2857.9z M791.4,2867.5
		c0.1-0.2,0.2-0.3,0.3-0.5c0.4-0.8,0.8-1.7,1.2-2.5c0,0,0-0.1,0-0.1c0.5-1.1,1-2.1,1.4-3.2l0.5-1.2l0,0c2.6-6.6,4.4-13.5,5.3-20.6
		c0-0.1,0-0.2,0-0.3c0.1-0.9,0.2-1.7,0.3-2.6c0-0.2,0-0.5,0.1-0.7c0-0.2,0-0.3,0-0.5c0-0.2,0-0.3,0-0.5h20.7c0,0.4,0.1,0.7,0.1,1.1
		c0,0.3,0.1,0.6,0.1,1c0.1,0.7,0.2,1.4,0.2,2.1c0,0.4,0.1,0.7,0.2,1.1c0.1,0.7,0.2,1.3,0.3,2c0.1,0.4,0.1,0.7,0.2,1.1
		c0.1,0.8,0.3,1.6,0.5,2.4c0.1,0.4,0.2,0.8,0.3,1.2c0.2,0.7,0.3,1.4,0.5,2.1c0.1,0.5,0.3,1,0.4,1.4c0.1,0.5,0.2,0.9,0.4,1.4
		c0.2,0.5,0.3,1.1,0.5,1.6c0.1,0.4,0.2,0.7,0.3,1.1c0.2,0.6,0.4,1.2,0.6,1.8c0,0.1,0.1,0.2,0.1,0.3c0.5,1.4,1,2.8,1.6,4.1l0,0
		l0.2,0.4c0.3,0.8,0.7,1.6,1.1,2.4c0,0.1,0,0.1,0.1,0.2c0.3,0.8,0.7,1.5,1.1,2.2c0,0,0,0.1,0.1,0.1c0.6,1.2,1.2,2.3,1.8,3.5h-41.4
		C790.7,2868.7,791,2868.1,791.4,2867.5z M831,2857.9c-2.7-6.8-4.6-14.1-5.4-21.8c0-0.2,0-0.4-0.1-0.6c0-0.2,0-0.4-0.1-0.6h0.8
		l0.2-1.9c1-11.2,26.4-18.7,49.5-18.7s48.4,7.5,49.5,18.7c0,0,0,0.1,0,0.1c0,0.8-0.1,1.6-0.1,2.3c0,0.3-0.1,0.6-0.1,0.9
		c-0.1,0.6-0.1,1.2-0.2,1.8c0,0.4-0.1,0.8-0.1,1.1c-0.1,0.5-0.1,1-0.2,1.5c-0.1,0.4-0.1,0.8-0.2,1.2c-0.1,0.5-0.2,1-0.3,1.5
		c-0.2,0.9-0.3,1.8-0.5,2.6c-0.1,0.3-0.1,0.5-0.2,0.8c-0.1,0.6-0.3,1.2-0.5,1.9c0,0.2-0.1,0.3-0.1,0.5c-0.7,2.8-1.6,5.6-2.7,8.3
		c-4.8-3-11.1-5.5-18.6-7.3c-7.8-1.8-16.7-2.8-25.7-2.8c-9,0-17.9,1-25.7,2.8C842.4,2852.1,835.8,2854.7,831,2857.9z M27.9,3199.2
		c-4.5-6-6.8-9-7.8-11.8c-1-2.7-1.1-6.1-1.4-12.7c-0.1-2.1-0.2-4.4-0.3-7.1l-8.6-181.2l0-0.1c-2.7-32.5-1-54.9,1.8-79.7
		c4.2-15.1,10.9-27.3,20.3-37.1c21.8-22.8,59.7-34.1,116.1-34.5h22c0,0.2,0,0.3,0,0.5c0,0.2,0,0.3,0,0.5c0,0.2,0,0.5,0.1,0.7
		c0.1,0.9,0.2,1.7,0.3,2.6c0,0.1,0,0.2,0,0.3c0.9,7.1,2.7,14,5.3,20.6l0,0l0.5,1.2c0.4,1.1,0.9,2.1,1.4,3.2c0,0,0,0.1,0.1,0.1
		c0.4,0.8,0.8,1.6,1.2,2.4c0.1,0.2,0.2,0.4,0.3,0.6c0.3,0.6,0.7,1.2,1,1.8h-57.5c-30.4-1.1-53.4,5.6-68.4,19.8
		c-13.9,13.2-21.2,33.1-21.6,59.2l6.9,264.8c0,0.6,0,1.2,0,1.7l-8.8-11.8C29.8,3201.7,28.8,3200.4,27.9,3199.2z M1020.7,3254.2
		c-82.6,5.2-211.3,4.3-324.9,3.6c-38.6-0.3-75.7-0.5-109-0.5c-10.9,0-21.4,0-31.5,0.1c-3.6,0-7.2,0-10.8,0
		c-40.8-0.2-89.3,0.1-140.6,0.4c-113.5,0.7-242.2,1.6-324.9-3.6c-12.1-0.8-19.1-10.9-26.5-21.6c-1.6-2.3-3.2-4.6-4.8-6.8l-3.4-4.6
		c-0.3-2-0.4-4.5-0.4-8l-6.9-264.8c0.4-24.9,7.3-43.8,20.3-56.1c14.1-13.4,36.1-19.7,65.4-18.7h60.1c4.6,7.2,10.2,13.1,16.2,17.5
		c0.1,0.1,0.2,0.1,0.3,0.2c0.6,0.5,1.3,0.9,1.9,1.3c0.2,0.1,0.4,0.2,0.6,0.4c0.5,0.3,1,0.6,1.5,1c0.3,0.2,0.6,0.4,0.9,0.5
		c0.4,0.2,0.8,0.4,1.2,0.6c0.4,0.2,0.7,0.4,1.1,0.5c0.5,0.2,0.9,0.4,1.4,0.7c0.3,0.2,0.7,0.3,1.1,0.5c0.4,0.2,0.8,0.3,1.2,0.5
		c0.4,0.2,0.9,0.3,1.4,0.5c0.4,0.1,0.7,0.2,1.1,0.4c0.4,0.1,0.9,0.3,1.3,0.4c0.4,0.1,0.9,0.2,1.3,0.4c0.3,0.1,0.5,0.1,0.8,0.2
		c0.6,0.1,1.2,0.3,1.9,0.4c0.2,0,0.4,0.1,0.6,0.1c0.7,0.1,1.4,0.2,2,0.3c0.1,0,0.3,0,0.4,0c0.8,0.1,1.5,0.1,2.3,0.1
		c0.3,0,0.5,0,0.8,0c0,0,0,0,0,0c0,0,0,0,0,0c0.7,0,1.5,0,2.2-0.1c0.1,0,0.1,0,0.2,0c13.3-0.9,26.5-9.1,36.5-22.7
		c0.4-0.5,0.7-1,1.1-1.5c0.1-0.2,0.3-0.4,0.4-0.6c0.3-0.5,0.7-1,1-1.5c0,0,0.1-0.1,0.1-0.1h46.5c4.6,7.2,10.2,13.1,16.2,17.5
		c0.1,0.1,0.2,0.1,0.3,0.2c0.6,0.5,1.3,0.9,1.9,1.3c0.2,0.1,0.4,0.2,0.6,0.4c0.5,0.3,1,0.6,1.5,0.9c0.3,0.2,0.6,0.4,1,0.6
		c0.4,0.2,0.8,0.4,1.2,0.6c0.4,0.2,0.7,0.4,1.1,0.6c0.4,0.2,0.9,0.4,1.3,0.6c0.4,0.2,0.7,0.3,1.1,0.5c0.4,0.2,0.8,0.3,1.1,0.5
		c0.5,0.2,0.9,0.4,1.4,0.5c0.3,0.1,0.7,0.2,1,0.4c0.4,0.1,0.9,0.3,1.3,0.4c0.4,0.1,0.9,0.2,1.3,0.4c0.3,0.1,0.5,0.1,0.8,0.2
		c0.6,0.1,1.2,0.3,1.9,0.4c0.2,0,0.4,0.1,0.6,0.1c0.7,0.1,1.4,0.2,2,0.3c0.1,0,0.3,0,0.4,0c0.8,0.1,1.5,0.1,2.3,0.1
		c0.3,0,0.5,0,0.8,0c0,0,0,0,0,0c0,0,0,0,0,0c0.7,0,1.5,0,2.2-0.1c0.1,0,0.1,0,0.2,0c13.3-0.9,26.5-9.1,36.5-22.7
		c0.4-0.5,0.7-1,1.1-1.5c0.1-0.2,0.3-0.4,0.4-0.6c0.3-0.5,0.7-1,1-1.5c0,0,0.1-0.1,0.1-0.1l49.5,0c2.8,4.3,5.9,8.2,9.2,11.6
		c2.2,2.2,4.5,4.2,6.9,6c0.1,0.1,0.2,0.1,0.3,0.2c0.6,0.5,1.3,0.9,1.9,1.3c0.2,0.1,0.4,0.2,0.6,0.4c0.5,0.3,1,0.6,1.5,0.9
		c0.3,0.2,0.7,0.4,1,0.6c0.4,0.2,0.8,0.4,1.1,0.6c0.4,0.2,0.7,0.4,1.1,0.6c0.4,0.2,0.9,0.4,1.3,0.6c0.4,0.2,0.7,0.3,1.1,0.5
		c0.4,0.2,0.8,0.3,1.1,0.5c0.5,0.2,0.9,0.4,1.4,0.5c0.3,0.1,0.7,0.2,1,0.4c0.4,0.1,0.9,0.3,1.3,0.4c0.4,0.1,0.9,0.2,1.3,0.4
		c0.3,0.1,0.5,0.1,0.8,0.2c0.6,0.1,1.2,0.3,1.9,0.4c0.2,0,0.4,0.1,0.6,0.1c0.7,0.1,1.4,0.2,2,0.3c0.1,0,0.3,0,0.4,0
		c0.8,0.1,1.5,0.1,2.3,0.1c0.3,0,0.5,0,0.8,0c0,0,0,0,0,0c0,0,0,0,0,0c0.7,0,1.5,0,2.2-0.1c0.1,0,0.1,0,0.2,0
		c13.8-0.9,27.4-9.7,37.6-24.2c0.1-0.2,0.3-0.4,0.4-0.6c0.3-0.5,0.7-1,1-1.5c0,0,0.1-0.1,0.1-0.1h46.7c0,0,0.1,0.1,0.1,0.1
		c0.3,0.5,0.7,1,1,1.5c0.1,0.2,0.3,0.4,0.4,0.6c10.1,14.5,23.8,23.2,37.6,24.2c0.1,0,0.1,0,0.2,0c0.7,0,1.5,0.1,2.2,0.1c0,0,0,0,0,0
		c0,0,0,0,0,0c0.3,0,0.5,0,0.8,0c0.8,0,1.5-0.1,2.3-0.1c0.1,0,0.3,0,0.4,0c0.7-0.1,1.4-0.2,2-0.3c0.2,0,0.4-0.1,0.6-0.1
		c0.6-0.1,1.2-0.2,1.9-0.4c0.3-0.1,0.5-0.1,0.8-0.2c0.4-0.1,0.9-0.2,1.3-0.4c0.4-0.1,0.9-0.3,1.3-0.4c0.4-0.1,0.7-0.2,1.1-0.4
		c0.4-0.2,0.9-0.3,1.3-0.5c0.4-0.2,0.8-0.3,1.2-0.5c0.4-0.1,0.7-0.3,1-0.5c0.5-0.2,0.9-0.4,1.4-0.7c0.3-0.2,0.7-0.4,1-0.5
		c0.4-0.2,0.8-0.4,1.2-0.7c0.3-0.2,0.6-0.4,0.9-0.5c0.5-0.3,1-0.6,1.6-1c0.2-0.1,0.4-0.2,0.5-0.4c0.6-0.4,1.3-0.9,1.9-1.3
		c0.1-0.1,0.2-0.1,0.2-0.2c6-4.4,11.5-10.4,16.2-17.5h49.5c0,0,0.1,0.1,0.1,0.1c0.3,0.5,0.7,1,1,1.5c0.1,0.2,0.3,0.4,0.4,0.6
		c10.1,14.5,23.8,23.2,37.6,24.2c0.1,0,0.1,0,0.2,0c0.7,0,1.5,0.1,2.2,0.1c0,0,0,0,0,0c0,0,0,0,0,0c0.3,0,0.5,0,0.8,0
		c0.8,0,1.5-0.1,2.3-0.1c0.1,0,0.3,0,0.4,0c0.7-0.1,1.4-0.2,2-0.3c0.2,0,0.4-0.1,0.6-0.1c0.6-0.1,1.2-0.2,1.9-0.4
		c0.3-0.1,0.5-0.1,0.8-0.2c0.4-0.1,0.9-0.2,1.3-0.4c0.4-0.1,0.9-0.3,1.3-0.4c0.3-0.1,0.7-0.2,1-0.4c0.5-0.2,0.9-0.3,1.4-0.5
		c0.4-0.1,0.8-0.3,1.1-0.5c0.4-0.2,0.7-0.3,1.1-0.5c0.4-0.2,0.9-0.4,1.3-0.6c0.4-0.2,0.7-0.4,1.1-0.6c0.4-0.2,0.8-0.4,1.1-0.6
		c0.3-0.2,0.7-0.4,1-0.6c0.5-0.3,1-0.6,1.5-0.9c0.2-0.1,0.4-0.2,0.6-0.4c0.6-0.4,1.3-0.9,1.9-1.3c0.1-0.1,0.2-0.1,0.3-0.2
		c6-4.4,11.5-10.3,16.2-17.5h46.5c0,0,0.1,0.1,0.1,0.1c0.3,0.5,0.7,1,1,1.5c0.1,0.2,0.3,0.4,0.4,0.6c10.1,14.5,23.8,23.2,37.6,24.2
		c0.1,0,0.1,0,0.2,0c0.7,0,1.5,0.1,2.2,0.1c0,0,0,0,0,0c0,0,0,0,0,0c0.3,0,0.5,0,0.8,0c0.8,0,1.5-0.1,2.3-0.1c0.1,0,0.3,0,0.4,0
		c0.7-0.1,1.4-0.2,2-0.3c0.2,0,0.4-0.1,0.6-0.1c0.6-0.1,1.2-0.2,1.7-0.3c0,0,0.1,0,0.1,0c0.3-0.1,0.5-0.1,0.8-0.2
		c0.4-0.1,0.9-0.2,1.3-0.4c0.4-0.1,0.9-0.3,1.3-0.4c0.3-0.1,0.7-0.2,1-0.4c0.5-0.2,0.9-0.3,1.4-0.5c0.4-0.2,0.8-0.3,1.1-0.5
		c0.4-0.2,0.7-0.3,1.1-0.5c0.4-0.2,0.9-0.4,1.3-0.6c0.4-0.2,0.7-0.4,1.1-0.6c0.4-0.2,0.8-0.4,1.2-0.6c0.3-0.2,0.6-0.4,1-0.6
		c0.5-0.3,1-0.6,1.5-0.9c0.2-0.1,0.4-0.2,0.6-0.4c0.6-0.4,1.3-0.9,1.9-1.3c0.1-0.1,0.2-0.1,0.3-0.2c6-4.4,11.5-10.4,16.2-17.5H977
		c29.2-1,51.2,5.2,65.3,18.7c13,12.4,19.9,31.3,20.3,56l-6.9,265c0,3.5-0.1,5.9-0.4,7.9l-3.4,4.6c-1.6,2.2-3.3,4.6-4.8,6.8
		C1039.8,3243.4,1032.8,3253.5,1020.7,3254.2z M1089.9,2986.2l-8.6,181.3c-0.1,2.7-0.2,5.1-0.3,7.1c-0.2,6.7-0.4,10-1.4,12.7
		c-1,2.8-3.3,5.8-7.8,11.8c-0.9,1.2-1.9,2.5-3,4l-8.8,11.8c0-0.5,0-1.1,0-1.7l6.9-265c-0.5-26.1-7.7-46-21.6-59.2
		c-15-14.2-38-20.9-68.3-19.8h-57.5c0.3-0.6,0.7-1.2,1-1.8c0.1-0.2,0.2-0.3,0.3-0.5c0.4-0.8,0.8-1.7,1.2-2.5c0,0,0,0,0-0.1
		c0.5-1.1,1-2.1,1.4-3.2l0.5-1.1l0,0c2.6-6.6,4.4-13.5,5.3-20.6c0-0.1,0-0.2,0-0.3c0.1-0.9,0.2-1.7,0.3-2.6c0-0.2,0-0.5,0.1-0.7
		c0-0.2,0-0.3,0-0.5c0-0.2,0-0.3,0-0.5h22c56.4,0.4,94.4,11.7,116.2,34.5c9.4,9.8,16.1,22,20.3,37.1
		C1090.9,2931.3,1092.6,2953.6,1089.9,2986.2z"/>
	<path class="st0" d="M284.4,3168.8v-107.2H174.5v107.2v37.1h109.8V3168.8z M178.8,3065.9h101.3v98.7H178.8V3065.9z M178.8,3201.7
		v-32.9h101.3v32.9H178.8z"/>
	<path class="st0" d="M410.3,3168.8v-107.2H300.5v107.2v37.1h109.8V3168.8z M304.7,3065.9H406v98.7H304.7V3065.9z M304.7,3201.7
		v-32.9H406v32.9H304.7z"/>
	<path class="st0" d="M537,3168.8v-107.2H427.1v107.2v37.1H537V3168.8z M431.4,3065.9h101.3v98.7H431.4V3065.9z M431.4,3201.7v-32.9
		h101.3v32.9H431.4z"/>
	<path class="st0" d="M669.4,3168.8v-107.2H559.5v107.2v37.1h109.8V3168.8z M563.8,3065.9h101.3v98.7H563.8V3065.9z M563.8,3201.7
		v-32.9h101.3v32.9H563.8z"/>
	<path class="st0" d="M795.3,3168.8v-107.2H685.5v107.2v37.1h109.8V3168.8z M689.7,3065.9h101.3v98.7H689.7V3065.9z M689.7,3201.7
		v-32.9h101.3v32.9H689.7z"/>
	<path class="st0" d="M922,3168.8v-107.2H812.2v107.2v37.1H922V3168.8z M816.4,3065.9h101.3v98.7H816.4V3065.9z M816.4,3201.7v-32.9
		h101.3v32.9H816.4z"/>
	<path class="st0" d="M254,3079.6h-49.1c-6.6,0-12,5.4-12,12v47.2c0,6.6,5.4,12,12,12H254c6.6,0,12-5.4,12-12v-47.2
		C266,3085,260.6,3079.6,254,3079.6z"/>
	<path class="st0" d="M380.6,3079.6h-49.1c-6.6,0-12,5.4-12,12v47.2c0,6.6,5.4,12,12,12h49.1c6.6,0,12-5.4,12-12v-47.2
		C392.6,3085,387.2,3079.6,380.6,3079.6z"/>
	<path class="st0" d="M506.6,3079.6h-49.1c-6.6,0-12,5.4-12,12v47.2c0,6.6,5.4,12,12,12h49.1c6.6,0,12-5.4,12-12v-47.2
		C518.6,3085,513.2,3079.6,506.6,3079.6z"/>
	<path class="st0" d="M893.5,3079.6h-49.1c-6.6,0-12,5.4-12,12v47.2c0,6.6,5.4,12,12,12h49.1c6.6,0,12-5.4,12-12v-47.2
		C905.6,3085,900.1,3079.6,893.5,3079.6z"/>
	<path class="st0" d="M765.9,3079.6h-49.1c-6.6,0-12,5.4-12,12v47.2c0,6.6,5.4,12,12,12h49.1c6.6,0,12-5.4,12-12v-47.2
		C778,3085,772.6,3079.6,765.9,3079.6z"/>
	<path class="st0" d="M639.9,3079.6h-49.1c-6.6,0-12,5.4-12,12v47.2c0,6.6,5.4,12,12,12h49.1c6.6,0,12-5.4,12-12v-47.2
		C652,3085,646.5,3079.6,639.9,3079.6z"/>
	<path class="st0" d="M941.4,3049.7l0.1-1.8h-0.6l-5.5-18.4h-0.8c0.3-11.4,0.6-22.8,0.8-34.2c0.5-23.9,1.2-48.4,1.9-72.1l0.1-3.3
		H155.7l0.1,2.2c0.5,14.7,1,29.6,1.6,44.1c0.4,9.7,0.7,19.4,1.1,29c0.4,11.9,0.9,23.9,1.3,34.3h-1.2l-6.3,18.4h-0.7l0.1,1.8
		l-0.8,2.4h0.9l5.9,167.6h779l4.8-167.6h0.8L941.4,3049.7z M932.9,2924.2c-0.7,23.4-1.3,47.5-1.9,71c-0.2,11.4-0.5,22.7-0.8,34
		H163.9c-0.4-10.3-0.9-22.3-1.3-34.1c-0.3-9.7-0.7-19.3-1.1-29c-0.5-13.7-1.1-27.8-1.5-41.8H932.9z M161.5,3033.7h770.6l4.3,14.1
		H156.7L161.5,3033.7z M932.4,3215.5H161.6l-5.7-163.4h781.2L932.4,3215.5z"/>
</g>
</svg>
